G04 Generated by Ultiboard 13.0 *
%IPNEG*%
%FSLAX25Y25*%
%MOIN*%

%ADD10C,0.00001*%
%ADD11C,0.11900*%
%ADD12C,0.08700*%
%ADD13R,0.08500X0.08500*%
%ADD14C,0.01200*%
%ADD15C,0.13011*%
%ADD16R,0.07087X0.04528*%
%ADD17R,0.02362X0.06102*%
%ADD18C,0.05137*%
%ADD19R,0.04528X0.07087*%
%ADD20C,0.09074*%
%ADD21R,0.02667X0.02667*%
%ADD22C,0.04533*%
%ADD23C,0.07534*%
%ADD24C,0.07499*%


G04 ColorRGB FF00CC for the following layer *
%LNSolder Mask Top*%
%LPD*%
G54D10*
G54D11*
X338772Y246288D03*
X356009Y246288D03*
X373246Y246288D03*
X390483Y246288D03*
X269824Y246288D03*
X287061Y246288D03*
X321535Y246288D03*
X304298Y246288D03*
X334000Y214000D03*
G54D12*
X235000Y244500D03*
X235000Y234500D03*
X235000Y224500D03*
X235000Y214500D03*
X235000Y204500D03*
X235000Y194500D03*
X235000Y184500D03*
X235000Y174500D03*
X235000Y164500D03*
X405000Y244500D03*
X405000Y234500D03*
X405000Y224500D03*
X405000Y214500D03*
X405000Y204500D03*
X405000Y194500D03*
X405000Y184500D03*
X405000Y174500D03*
X405000Y164500D03*
X405000Y254500D03*
X225000Y244500D03*
X225000Y234500D03*
X225000Y164500D03*
X225000Y174500D03*
X225000Y184500D03*
X225000Y194500D03*
X225000Y204500D03*
X225000Y214500D03*
X225000Y224500D03*
X415000Y254500D03*
X415000Y244500D03*
X415000Y234500D03*
X415000Y224500D03*
X415000Y214500D03*
X415000Y204500D03*
X415000Y194500D03*
X415000Y184500D03*
X415000Y174500D03*
X415000Y164500D03*
G54D13*
X225000Y254500D03*
X235000Y254500D03*
G54D14*
X220750Y250250D02*
X229250Y250250D01*
X229250Y258750D01*
X220750Y258750D01*
X220750Y250250D01*D02*
X230750Y250250D02*
X239250Y250250D01*
X239250Y258750D01*
X230750Y258750D01*
X230750Y250250D01*D02*
X246457Y213830D02*
X253543Y213830D01*
X253543Y218358D01*
X246457Y218358D01*
X246457Y213830D01*D02*
X246457Y225642D02*
X253543Y225642D01*
X253543Y230170D01*
X246457Y230170D01*
X246457Y225642D01*D02*
X260457Y213830D02*
X267543Y213830D01*
X267543Y218358D01*
X260457Y218358D01*
X260457Y213830D01*D02*
X260457Y225642D02*
X267543Y225642D01*
X267543Y230170D01*
X260457Y230170D01*
X260457Y225642D01*D02*
X317319Y166319D02*
X319681Y166319D01*
X319681Y172421D01*
X317319Y172421D01*
X317319Y166319D01*D02*
X322319Y166319D02*
X324681Y166319D01*
X324681Y172421D01*
X322319Y172421D01*
X322319Y166319D01*D02*
X307319Y166319D02*
X309681Y166319D01*
X309681Y172421D01*
X307319Y172421D01*
X307319Y166319D01*D02*
X312319Y166319D02*
X314681Y166319D01*
X314681Y172421D01*
X312319Y172421D01*
X312319Y166319D01*D02*
X322319Y187579D02*
X324681Y187579D01*
X324681Y193681D01*
X322319Y193681D01*
X322319Y187579D01*D02*
X317319Y187579D02*
X319681Y187579D01*
X319681Y193681D01*
X317319Y193681D01*
X317319Y187579D01*D02*
X312319Y187579D02*
X314681Y187579D01*
X314681Y193681D01*
X312319Y193681D01*
X312319Y187579D01*D02*
X307319Y187579D02*
X309681Y187579D01*
X309681Y193681D01*
X307319Y193681D01*
X307319Y187579D01*D02*
X315830Y230457D02*
X320358Y230457D01*
X320358Y237543D01*
X315830Y237543D01*
X315830Y230457D01*D02*
X327642Y230457D02*
X332170Y230457D01*
X332170Y237543D01*
X327642Y237543D01*
X327642Y230457D01*D02*
X271830Y230457D02*
X276358Y230457D01*
X276358Y237543D01*
X271830Y237543D01*
X271830Y230457D01*D02*
X283642Y230457D02*
X288170Y230457D01*
X288170Y237543D01*
X283642Y237543D01*
X283642Y230457D01*D02*
X293830Y230457D02*
X298358Y230457D01*
X298358Y237543D01*
X293830Y237543D01*
X293830Y230457D01*D02*
X305642Y230457D02*
X310170Y230457D01*
X310170Y237543D01*
X305642Y237543D01*
X305642Y230457D01*D02*
X319642Y196457D02*
X324170Y196457D01*
X324170Y203543D01*
X319642Y203543D01*
X319642Y196457D01*D02*
X307830Y196457D02*
X312358Y196457D01*
X312358Y203543D01*
X307830Y203543D01*
X307830Y196457D01*D02*
G54D15*
X247142Y170646D03*
X264858Y170646D03*
X247142Y201354D03*
X264858Y201354D03*
X296858Y201354D03*
X279142Y201354D03*
X296858Y170646D03*
X279142Y170646D03*
G54D16*
X250000Y216094D03*
X250000Y227906D03*
X264000Y216094D03*
X264000Y227906D03*
G54D17*
X318500Y169370D03*
X323500Y169370D03*
X308500Y169370D03*
X313500Y169370D03*
X323500Y190630D03*
X318500Y190630D03*
X313500Y190630D03*
X308500Y190630D03*
G54D18*
X405000Y255000D03*
X400000Y258000D03*
X253787Y208000D03*
X271000Y208000D03*
X285000Y207606D03*
X303000Y207748D03*
X326782Y200000D03*
X327032Y190000D03*
X250000Y211394D03*
X264000Y211000D03*
X250000Y227906D03*
X285953Y234000D03*
X264000Y227906D03*
X318000Y234000D03*
X322000Y246876D03*
X304000Y247000D03*
X296000Y234000D03*
X339000Y256000D03*
X356000Y257000D03*
X372000Y256000D03*
X389000Y256000D03*
X308000Y235000D03*
X313000Y169000D03*
X323000Y170000D03*
G54D19*
X318094Y234000D03*
X329906Y234000D03*
X274094Y234000D03*
X285906Y234000D03*
X296094Y234000D03*
X307906Y234000D03*
X321906Y200000D03*
X310094Y200000D03*
G54D20*
X388500Y198961D03*
X373500Y198961D03*
X358500Y198961D03*
X343500Y198961D03*
G54D21*
X282000Y218000D03*
G54D22*
X280667Y216667D02*
X283333Y216667D01*
X283333Y219333D01*
X280667Y219333D01*
X280667Y216667D01*D02*
G54D23*
X312000Y218000D03*
G54D24*
X369961Y232000D03*
X369961Y222000D03*
X369961Y212000D03*

M02*
