G04 Generated by Ultiboard 13.0 *
%FSLAX25Y25*%
%MOIN*%

%ADD10C,0.00001*%
%ADD11C,0.01000*%
%ADD12C,0.10700*%
%ADD13C,0.07500*%
%ADD14C,0.08500*%
%ADD15C,0.03937*%
%ADD16C,0.07874*%
%ADD17C,0.06299*%
%ADD18C,0.11811*%


G04 ColorRGB 0000FF for the following layer *
%LNCopper Bottom*%
%LPD*%
G54D10*
G36*
X214000Y265000D02*
X214000Y265000D01*
X214000Y155000D01*
X424000Y155000D01*
X424000Y265000D01*
X214000Y265000D01*
D02*
G37*
%LPC*%
G36*
X301243Y262478D02*
X301243Y262478D01*
X418283Y262478D01*
G74*
D01*
G02X419707Y261887I1J2009*
G01*
X419707Y261887D01*
X422419Y259175D01*
G74*
D01*
G02X423010Y257752I1418J1423*
G01*
X423010Y257752D01*
X423010Y181000D01*
G75*
D01*
G02X422419Y179577I-2010J1*
G01*
X422419Y179577D01*
X419694Y176852D01*
G75*
D01*
G02X416601Y169500I-4694J-2352*
G01*
G75*
D01*
G02X410000Y162899I-1601J-5000*
G01*
G75*
D01*
G02X400392Y167016I-5000J1602*
G01*
X400392Y167016D01*
X399418Y167990D01*
X325827Y167990D01*
G75*
D01*
G02X320990Y172827I-2824J2013*
G01*
X320990Y172827D01*
X320990Y202995D01*
G75*
D01*
G02X321579Y204421I2010J4*
G01*
X321579Y204421D01*
X327948Y210791D01*
G75*
D01*
G02X330791Y207948I6052J3209*
G01*
X330791Y207948D01*
X325553Y202710D01*
X325553Y201230D01*
X325010Y201230D01*
X325010Y198770D01*
X325553Y198770D01*
X325553Y196757D01*
G74*
D01*
G02X325010Y197019I1230J3243*
G01*
X325010Y197019D01*
X325010Y192818D01*
G74*
D01*
G02X325803Y193243I2021J2818*
G01*
X325803Y193243D01*
X325803Y191230D01*
X325010Y191230D01*
X325010Y188770D01*
X325803Y188770D01*
X325803Y186757D01*
G74*
D01*
G02X325010Y187182I1228J3243*
G01*
X325010Y187182D01*
X325010Y172827D01*
G74*
D01*
G02X325827Y172010I2009J2826*
G01*
X325827Y172010D01*
X400248Y172010D01*
G75*
D01*
G02X400381Y172005I-9J-2010*
G01*
G75*
D01*
G02X403399Y179500I4618J2496*
G01*
G75*
D01*
G02X403399Y189500I1601J5000*
G01*
G74*
D01*
G02X399818Y193658I1601J5000*
G01*
X399818Y193658D01*
X391273Y185113D01*
G74*
D01*
G02X389849Y184522I1423J1418*
G01*
X389849Y184522D01*
X355932Y184522D01*
G75*
D01*
G02X354508Y185110I-4J2009*
G01*
X354508Y185110D01*
X345651Y193967D01*
G75*
D01*
G02X348493Y196809I-2151J4993*
G01*
X348493Y196809D01*
X356762Y188541D01*
X389017Y188541D01*
X397740Y197265D01*
X397740Y198452D01*
X391869Y204323D01*
X389396Y204323D01*
G75*
D01*
G02X386349Y193967I-904J-5360*
G01*
X386349Y193967D01*
X384012Y191631D01*
G75*
D01*
G02X381818Y191197I-1421J1420*
G01*
X381818Y191197D01*
X381566Y191301D01*
G74*
D01*
G02X381178Y191514I767J1858*
G01*
X381178Y191514D01*
X363476Y191514D01*
G75*
D01*
G02X363036Y191563I1J2010*
G01*
G74*
D01*
G02X362055Y192103I440J1960*
G01*
X362055Y192103D01*
X360320Y193837D01*
G75*
D01*
G02X360965Y203807I-1819J5124*
G01*
X360965Y203807D01*
X365929Y208771D01*
G74*
D01*
G02X366337Y209086I1422J1420*
G01*
G75*
D01*
G02X367990Y216211I3624J2913*
G01*
X367990Y216211D01*
X367990Y217788D01*
G75*
D01*
G02X365736Y223942I1971J4212*
G01*
X365736Y223942D01*
X364337Y225341D01*
X339654Y225341D01*
G75*
D01*
G02X339327Y225367I-5J2009*
G01*
G74*
D01*
G02X338232Y225929I326J1982*
G01*
X338232Y225929D01*
X335633Y228529D01*
G74*
D01*
G02X335047Y228667I162J2001*
G01*
G74*
D01*
G02X334376Y229110I749J1864*
G01*
X334376Y229110D01*
X332110Y231376D01*
G75*
D01*
G02X331522Y232801I1421J1420*
G01*
X331522Y232801D01*
X331522Y237428D01*
X318528Y237428D01*
G75*
D01*
G02X317422Y230580I-553J-3424*
G01*
X317422Y230580D01*
X313738Y226896D01*
X313329Y226487D01*
G74*
D01*
G02X311906Y225896I1423J1418*
G01*
X311906Y225896D01*
X266827Y225896D01*
G75*
D01*
G02X261228Y229990I-2800J2047*
G01*
X261228Y229990D01*
X257755Y229990D01*
X256838Y229073D01*
X256838Y228324D01*
X263152Y222010D01*
X277921Y222010D01*
G75*
D01*
G02X277921Y217990I2826J-2010*
G01*
X277921Y217990D01*
X262320Y217990D01*
G75*
D01*
G02X261681Y218094I-1J2010*
G01*
G74*
D01*
G02X260899Y218579I640J1905*
G01*
X260899Y218579D01*
X253409Y226069D01*
G74*
D01*
G02X253132Y226414I1418J1422*
G01*
G75*
D01*
G02X250578Y231326I-3132J1491*
G01*
X250578Y231326D01*
X254673Y235421D01*
G75*
D01*
G02X256097Y236010I1421J-1420*
G01*
X256097Y236010D01*
X283126Y236010D01*
G75*
D01*
G02X289100Y232541I2831J-2003*
G01*
X289100Y232541D01*
X290699Y232541D01*
X292260Y234102D01*
G75*
D01*
G02X295102Y231260I3420J578*
G01*
X295102Y231260D01*
X293757Y229915D01*
X311073Y229915D01*
X314580Y233422D01*
G75*
D01*
G02X317472Y237428I3419J578*
G01*
X317472Y237428D01*
X313270Y237428D01*
X311420Y235578D01*
G75*
D01*
G02X308578Y238420I-3420J-578*
G01*
X308578Y238420D01*
X311017Y240859D01*
G74*
D01*
G02X311773Y241334I1420J1421*
G01*
G75*
D01*
G02X312438Y241447I664J-1896*
G01*
X312438Y241447D01*
X316688Y241447D01*
G75*
D01*
G02X328084Y248297I4848J4840*
G01*
X328084Y248297D01*
X330503Y248297D01*
G74*
D01*
G02X331928Y247705I1J2009*
G01*
X331928Y247705D01*
X333340Y246294D01*
G74*
D01*
G02X333932Y244869I1418J1425*
G01*
X333932Y244869D01*
X333932Y244283D01*
X334356Y243859D01*
X336343Y243859D01*
X336343Y241872D01*
X336950Y241264D01*
G74*
D01*
G02X337541Y239841I1418J1423*
G01*
X337541Y239841D01*
X337541Y234541D01*
X366067Y234541D01*
G75*
D01*
G02X374357Y230485I3897J-2536*
G01*
X374357Y230485D01*
X381515Y223327D01*
G74*
D01*
G02X382106Y221904I1418J1423*
G01*
X382106Y221904D01*
X382106Y212361D01*
G75*
D01*
G02X381515Y210938I-2010J1*
G01*
X381515Y210938D01*
X378321Y207744D01*
G74*
D01*
G02X377075Y207161I1423J1418*
G01*
G75*
D01*
G02X376896Y207153I-179J2001*
G01*
X376896Y207153D01*
X374532Y207153D01*
X373310Y205932D01*
G74*
D01*
G02X372719Y205521I1423J1416*
G01*
G75*
D01*
G02X371883Y205341I-831J1829*
G01*
X371883Y205341D01*
X368183Y205341D01*
X363623Y200781D01*
G75*
D01*
G02X363346Y196496I-5122J-1820*
G01*
X363346Y196496D01*
X364309Y195533D01*
X369279Y195533D01*
G75*
D01*
G02X376591Y203433I4221J3427*
G01*
X376591Y203433D01*
X381740Y208582D01*
G74*
D01*
G02X382600Y209092I1423J1419*
G01*
G75*
D01*
G02X383165Y209173I565J-1928*
G01*
X383165Y209173D01*
X384819Y209173D01*
G75*
D01*
G02X386244Y208584I3J-2010*
G01*
X386244Y208584D01*
X386485Y208343D01*
X392701Y208343D01*
G74*
D01*
G02X394126Y207751I0J2010*
G01*
X394126Y207751D01*
X401168Y200709D01*
G74*
D01*
G02X401760Y199284I1418J1425*
G01*
X401760Y199284D01*
X401760Y198631D01*
G74*
D01*
G02X403399Y199500I3240J4131*
G01*
G75*
D01*
G02X403399Y209500I1601J5000*
G01*
G75*
D01*
G02X403399Y219500I1601J5000*
G01*
G75*
D01*
G02X403399Y229500I1601J5000*
G01*
G75*
D01*
G02X403399Y239500I1601J5000*
G01*
G75*
D01*
G02X410000Y246101I1601J5000*
G01*
G75*
D01*
G02X418990Y247912I5000J-1601*
G01*
X418990Y247912D01*
X418990Y251088D01*
G74*
D01*
G02X416862Y249591I3990J3411*
G01*
X416862Y249591D01*
X416862Y252638D01*
X418990Y252638D01*
X418990Y256362D01*
X416862Y256362D01*
X416862Y258459D01*
X413138Y258459D01*
X413138Y256362D01*
X410091Y256362D01*
G74*
D01*
G02X411552Y258459I4909J1862*
G01*
X411552Y258459D01*
X408448Y258459D01*
G74*
D01*
G02X409909Y256362I3447J3959*
G01*
X409909Y256362D01*
X406862Y256362D01*
X406862Y258459D01*
X403138Y258459D01*
X403138Y256362D01*
X400091Y256362D01*
G74*
D01*
G02X401552Y258459I4909J1862*
G01*
X401552Y258459D01*
X400147Y258459D01*
G74*
D01*
G02X400243Y258230I3148J1454*
G01*
X400243Y258230D01*
X398230Y258230D01*
X398230Y258459D01*
X395770Y258459D01*
X395770Y258230D01*
X393757Y258230D01*
G74*
D01*
G02X393853Y258459I3244J1225*
G01*
X393853Y258459D01*
X391446Y258459D01*
G74*
D01*
G02X392243Y257230I2446J2459*
G01*
X392243Y257230D01*
X390230Y257230D01*
X390230Y258459D01*
X387770Y258459D01*
X387770Y257230D01*
X385757Y257230D01*
G74*
D01*
G02X386554Y258459I3243J1230*
G01*
X386554Y258459D01*
X374446Y258459D01*
G74*
D01*
G02X375243Y257230I2446J2459*
G01*
X375243Y257230D01*
X373230Y257230D01*
X373230Y258459D01*
X370770Y258459D01*
X370770Y257230D01*
X368757Y257230D01*
G74*
D01*
G02X369554Y258459I3243J1230*
G01*
X369554Y258459D01*
X359147Y258459D01*
G74*
D01*
G02X359243Y258230I3148J1454*
G01*
X359243Y258230D01*
X357230Y258230D01*
X357230Y258459D01*
X354770Y258459D01*
X354770Y258230D01*
X352757Y258230D01*
G74*
D01*
G02X352853Y258459I3244J1225*
G01*
X352853Y258459D01*
X341446Y258459D01*
G74*
D01*
G02X342243Y257230I2446J2459*
G01*
X342243Y257230D01*
X340230Y257230D01*
X340230Y258459D01*
X337770Y258459D01*
X337770Y257230D01*
X335757Y257230D01*
G74*
D01*
G02X336554Y258459I3243J1230*
G01*
X336554Y258459D01*
X302074Y258459D01*
X296860Y253245D01*
X296860Y253245D01*
X293113Y249497D01*
G75*
D01*
G02X290271Y252339I-6052J-3210*
G01*
X290271Y252339D01*
X299821Y261890D01*
G75*
D01*
G02X301243Y262478I1420J-1421*
G01*
D02*
G37*
G36*
X416557Y253245D02*
G75*
D01*
G02X416557Y253245I-1557J1255*
G01*
D02*
G37*
G36*
X406862Y249591D02*
X406862Y249591D01*
X406862Y252638D01*
X409909Y252638D01*
G74*
D01*
G02X406862Y249591I4909J1862*
G01*
D02*
G37*
G36*
X340230Y252757D02*
X340230Y252757D01*
X340230Y254770D01*
X342243Y254770D01*
G74*
D01*
G02X340230Y252757I3243J1230*
G01*
D02*
G37*
G36*
X370770Y252757D02*
G74*
D01*
G02X368757Y254770I1230J3243*
G01*
X368757Y254770D01*
X370770Y254770D01*
X370770Y252757D01*
D02*
G37*
G36*
X373230Y252757D02*
X373230Y252757D01*
X373230Y254770D01*
X375243Y254770D01*
G74*
D01*
G02X373230Y252757I3243J1230*
G01*
D02*
G37*
G36*
X387770Y252757D02*
G74*
D01*
G02X385757Y254770I1230J3243*
G01*
X385757Y254770D01*
X387770Y254770D01*
X387770Y252757D01*
D02*
G37*
G36*
X390230Y252757D02*
X390230Y252757D01*
X390230Y254770D01*
X392243Y254770D01*
G74*
D01*
G02X390230Y252757I3243J1230*
G01*
D02*
G37*
G36*
X406557Y253245D02*
G75*
D01*
G02X406557Y253245I-1557J1255*
G01*
D02*
G37*
G36*
X337770Y252757D02*
G74*
D01*
G02X335757Y254770I1230J3243*
G01*
X335757Y254770D01*
X337770Y254770D01*
X337770Y252757D01*
D02*
G37*
G36*
X237288Y249225D02*
G75*
D01*
G02X236601Y239500I-2285J-4725*
G01*
G75*
D01*
G02X236601Y229500I-1601J-5000*
G01*
G75*
D01*
G02X236601Y219500I-1601J-5000*
G01*
G75*
D01*
G02X236601Y209500I-1601J-5000*
G01*
G75*
D01*
G02X236601Y199500I-1601J-5000*
G01*
G75*
D01*
G02X236601Y189500I-1601J-5000*
G01*
G75*
D01*
G02X236601Y179500I-1601J-5000*
G01*
G75*
D01*
G02X236601Y169500I-1601J-5000*
G01*
G75*
D01*
G02X230000Y162899I-1601J-5000*
G01*
G75*
D01*
G02X223399Y169500I-5000J1601*
G01*
G75*
D01*
G02X223399Y179500I1601J5000*
G01*
G75*
D01*
G02X223399Y189500I1601J5000*
G01*
G75*
D01*
G02X223399Y199500I1601J5000*
G01*
G75*
D01*
G02X223399Y209500I1601J5000*
G01*
G75*
D01*
G02X223399Y219500I1601J5000*
G01*
G75*
D01*
G02X223399Y229500I1601J5000*
G01*
G75*
D01*
G02X223399Y239500I1601J5000*
G01*
G75*
D01*
G02X222712Y249225I1601J5000*
G01*
G75*
D01*
G02X230000Y257339I2290J5273*
G01*
G75*
D01*
G02X237288Y249225I4998J-2841*
G01*
D02*
G37*
G36*
X311127Y167036D02*
X311127Y167036D01*
X309956Y167036D01*
G75*
D01*
G02X309438Y167104I0J2010*
G01*
G74*
D01*
G02X308531Y167627I515J1942*
G01*
X308531Y167627D01*
X286126Y190032D01*
G75*
D01*
G02X285538Y191457I1421J1420*
G01*
X285538Y191457D01*
X285538Y195621D01*
G75*
D01*
G02X272000Y197395I-6396J3731*
G01*
G75*
D01*
G02X260761Y205523I-7141J1960*
G01*
G74*
D01*
G02X259403Y206110I62J2007*
G01*
X259403Y206110D01*
X259110Y206403D01*
G75*
D01*
G02X258522Y207828I1421J1420*
G01*
X258522Y207828D01*
X258522Y212490D01*
X256032Y214981D01*
G74*
D01*
G02X255445Y216310I1420J1421*
G01*
X255445Y216310D01*
X252327Y219427D01*
X246827Y219427D01*
G75*
D01*
G02X245403Y220016I-2J2010*
G01*
X245403Y220016D01*
X241110Y224309D01*
G75*
D01*
G02X240522Y225733I1421J1420*
G01*
X240522Y225733D01*
X240522Y231357D01*
G75*
D01*
G02X241110Y232783I2009J6*
G01*
X241110Y232783D01*
X256036Y247709D01*
G74*
D01*
G02X257251Y248287I1421J1420*
G01*
G75*
D01*
G02X257457Y248297I200J-1999*
G01*
X257457Y248297D01*
X263275Y248297D01*
G75*
D01*
G02X263275Y244278I6549J-2009*
G01*
X263275Y244278D01*
X258289Y244278D01*
X244541Y230530D01*
X244541Y226562D01*
X247657Y223447D01*
X253160Y223447D01*
G74*
D01*
G02X254583Y222856I1J2010*
G01*
X254583Y222856D01*
X258871Y218568D01*
G74*
D01*
G02X259460Y217236I1418J1423*
G01*
X259460Y217236D01*
X261950Y214746D01*
G74*
D01*
G02X262395Y214075I1418J1423*
G01*
G74*
D01*
G02X262770Y214243I1603J3075*
G01*
X262770Y214243D01*
X262770Y212230D01*
X262541Y212230D01*
X262541Y209770D01*
X262770Y209770D01*
X262770Y209541D01*
X265230Y209541D01*
X265230Y209770D01*
X267243Y209770D01*
G74*
D01*
G02X267147Y209541I3244J1225*
G01*
X267147Y209541D01*
X286254Y209541D01*
G74*
D01*
G02X287678Y208950I0J2010*
G01*
X287678Y208950D01*
X288966Y207662D01*
G74*
D01*
G02X289557Y206239I1418J1423*
G01*
X289557Y206239D01*
X289557Y200592D01*
G75*
D01*
G02X289557Y198117I7301J-1237*
G01*
X289557Y198117D01*
X289557Y192285D01*
X310786Y171056D01*
X311127Y171056D01*
G75*
D01*
G02X311127Y167036I2826J-2010*
G01*
D02*
G37*
G36*
X413138Y249591D02*
G74*
D01*
G02X410091Y252638I1862J4909*
G01*
X410091Y252638D01*
X413138Y252638D01*
X413138Y249591D01*
D02*
G37*
G36*
X337819Y256000D02*
G75*
D01*
G02X337819Y256000I1181J0*
G01*
D02*
G37*
G36*
X354770Y253757D02*
G74*
D01*
G02X352757Y255770I1230J3243*
G01*
X352757Y255770D01*
X354770Y255770D01*
X354770Y253757D01*
D02*
G37*
G36*
X359243Y255770D02*
G74*
D01*
G02X357230Y253757I3243J1230*
G01*
X357230Y253757D01*
X357230Y255770D01*
X359243Y255770D01*
D02*
G37*
G36*
X354819Y257000D02*
G75*
D01*
G02X354819Y257000I1181J0*
G01*
D02*
G37*
G36*
X370819Y256000D02*
G75*
D01*
G02X370819Y256000I1181J0*
G01*
D02*
G37*
G36*
X387819Y256000D02*
G75*
D01*
G02X387819Y256000I1181J0*
G01*
D02*
G37*
G36*
X400243Y255770D02*
G74*
D01*
G02X398230Y253757I3243J1230*
G01*
X398230Y253757D01*
X398230Y255770D01*
X400243Y255770D01*
D02*
G37*
G36*
X395770Y253757D02*
G74*
D01*
G02X393757Y255770I1230J3243*
G01*
X393757Y255770D01*
X395770Y255770D01*
X395770Y253757D01*
D02*
G37*
G36*
X395819Y257000D02*
G75*
D01*
G02X395819Y257000I1181J0*
G01*
D02*
G37*
G36*
X403138Y249591D02*
G74*
D01*
G02X400091Y252638I1862J4909*
G01*
X400091Y252638D01*
X403138Y252638D01*
X403138Y249591D01*
D02*
G37*
G36*
X335622Y246288D02*
G75*
D01*
G02X335622Y246288I3150J0*
G01*
D02*
G37*
G36*
X341201Y252693D02*
G74*
D01*
G02X345177Y248717I2429J6405*
G01*
X345177Y248717D01*
X341201Y248717D01*
X341201Y252693D01*
D02*
G37*
G36*
X332367Y248717D02*
G74*
D01*
G02X336343Y252693I6405J2429*
G01*
X336343Y252693D01*
X336343Y248717D01*
X332367Y248717D01*
D02*
G37*
G36*
X345177Y243859D02*
G74*
D01*
G02X341201Y239883I6405J2429*
G01*
X341201Y239883D01*
X341201Y243859D01*
X345177Y243859D01*
D02*
G37*
G36*
X384078Y248717D02*
G74*
D01*
G02X388054Y252693I6405J2429*
G01*
X388054Y252693D01*
X388054Y248717D01*
X384078Y248717D01*
D02*
G37*
G36*
X388054Y239883D02*
G74*
D01*
G02X384078Y243859I2429J6405*
G01*
X384078Y243859D01*
X388054Y243859D01*
X388054Y239883D01*
D02*
G37*
G36*
X396888Y243859D02*
G74*
D01*
G02X392912Y239883I6405J2429*
G01*
X392912Y239883D01*
X392912Y243859D01*
X396888Y243859D01*
D02*
G37*
G36*
X387333Y246288D02*
G75*
D01*
G02X387333Y246288I3150J0*
G01*
D02*
G37*
G36*
X392912Y252693D02*
G74*
D01*
G02X396888Y248717I2429J6405*
G01*
X396888Y248717D01*
X392912Y248717D01*
X392912Y252693D01*
D02*
G37*
G36*
X366841Y248717D02*
G74*
D01*
G02X370817Y252693I6405J2429*
G01*
X370817Y252693D01*
X370817Y248717D01*
X366841Y248717D01*
D02*
G37*
G36*
X370817Y239883D02*
G74*
D01*
G02X366841Y243859I2429J6405*
G01*
X366841Y243859D01*
X370817Y243859D01*
X370817Y239883D01*
D02*
G37*
G36*
X379651Y243859D02*
G74*
D01*
G02X375675Y239883I6405J2429*
G01*
X375675Y239883D01*
X375675Y243859D01*
X379651Y243859D01*
D02*
G37*
G36*
X370096Y246288D02*
G75*
D01*
G02X370096Y246288I3150J0*
G01*
D02*
G37*
G36*
X375675Y252693D02*
G74*
D01*
G02X379651Y248717I2429J6405*
G01*
X379651Y248717D01*
X375675Y248717D01*
X375675Y252693D01*
D02*
G37*
G36*
X349604Y248717D02*
G74*
D01*
G02X353580Y252693I6405J2429*
G01*
X353580Y252693D01*
X353580Y248717D01*
X349604Y248717D01*
D02*
G37*
G36*
X362414Y243859D02*
G74*
D01*
G02X358438Y239883I6405J2429*
G01*
X358438Y239883D01*
X358438Y243859D01*
X362414Y243859D01*
D02*
G37*
G36*
X353580Y239883D02*
G74*
D01*
G02X349604Y243859I2429J6405*
G01*
X349604Y243859D01*
X353580Y243859D01*
X353580Y239883D01*
D02*
G37*
G36*
X352859Y246288D02*
G75*
D01*
G02X352859Y246288I3150J0*
G01*
D02*
G37*
G36*
X358438Y252693D02*
G74*
D01*
G02X362414Y248717I2429J6405*
G01*
X362414Y248717D01*
X358438Y248717D01*
X358438Y252693D01*
D02*
G37*
G36*
X325601Y200000D02*
G75*
D01*
G02X325601Y200000I1181J0*
G01*
D02*
G37*
G36*
X328012Y203243D02*
G74*
D01*
G02X330026Y201230I1229J3243*
G01*
X330026Y201230D01*
X328012Y201230D01*
X328012Y203243D01*
D02*
G37*
G36*
X328262Y193243D02*
G74*
D01*
G02X330276Y191230I1229J3243*
G01*
X330276Y191230D01*
X328262Y191230D01*
X328262Y193243D01*
D02*
G37*
G36*
X330026Y198770D02*
G74*
D01*
G02X328012Y196757I3243J1231*
G01*
X328012Y196757D01*
X328012Y198770D01*
X330026Y198770D01*
D02*
G37*
G36*
X330276Y188770D02*
G74*
D01*
G02X328262Y186757I3243J1231*
G01*
X328262Y186757D01*
X328262Y188770D01*
X330276Y188770D01*
D02*
G37*
G36*
X325851Y190000D02*
G75*
D01*
G02X325851Y190000I1181J0*
G01*
D02*
G37*
G36*
X281768Y175570D02*
G74*
D01*
G02X286066Y171272I2626J6924*
G01*
X286066Y171272D01*
X281768Y171272D01*
X281768Y175570D01*
D02*
G37*
G36*
X289453Y168646D02*
G75*
D01*
G02X289453Y168646I7405J0*
G01*
D02*
G37*
G36*
X262819Y211000D02*
G75*
D01*
G02X262819Y211000I1181J0*
G01*
D02*
G37*
G36*
X297448Y246288D02*
G75*
D01*
G02X297448Y246288I6850J0*
G01*
D02*
G37*
G36*
X239736Y168646D02*
G75*
D01*
G02X239736Y168646I7406J0*
G01*
D02*
G37*
G36*
X239736Y199354D02*
G75*
D01*
G02X239736Y199354I7406J0*
G01*
D02*
G37*
G36*
X253363Y163230D02*
G74*
D01*
G02X255376Y165243I3243J1230*
G01*
X255376Y165243D01*
X255376Y163230D01*
X253363Y163230D01*
D02*
G37*
G36*
X246757Y212624D02*
G74*
D01*
G02X248770Y214637I3243J1230*
G01*
X248770Y214637D01*
X248770Y212624D01*
X246757Y212624D01*
D02*
G37*
G36*
X251230Y214637D02*
G74*
D01*
G02X253243Y212624I1230J3243*
G01*
X253243Y212624D01*
X251230Y212624D01*
X251230Y214637D01*
D02*
G37*
G36*
X265230Y214243D02*
G74*
D01*
G02X267243Y212230I1230J3243*
G01*
X267243Y212230D01*
X265230Y212230D01*
X265230Y214243D01*
D02*
G37*
G36*
X248819Y211394D02*
G75*
D01*
G02X248819Y211394I1181J0*
G01*
D02*
G37*
G36*
X248770Y208151D02*
G74*
D01*
G02X246757Y210164I1230J3243*
G01*
X246757Y210164D01*
X248770Y210164D01*
X248770Y208151D01*
D02*
G37*
G36*
X253243Y210164D02*
G74*
D01*
G02X251230Y208151I3243J1230*
G01*
X251230Y208151D01*
X251230Y210164D01*
X253243Y210164D01*
D02*
G37*
G36*
X277173Y168646D02*
G75*
D01*
G02X277173Y168646I1969J0*
G01*
D02*
G37*
G36*
X272217Y171272D02*
G74*
D01*
G02X276516Y175570I6924J2627*
G01*
X276516Y175570D01*
X276516Y171272D01*
X272217Y171272D01*
D02*
G37*
G36*
X262890Y168646D02*
G75*
D01*
G02X262890Y168646I1968J0*
G01*
D02*
G37*
G36*
X267484Y175570D02*
G74*
D01*
G02X271783Y171272I2625J6924*
G01*
X271783Y171272D01*
X267484Y171272D01*
X267484Y175570D01*
D02*
G37*
G36*
X257934Y171272D02*
G74*
D01*
G02X262232Y175570I6924J2626*
G01*
X262232Y175570D01*
X262232Y171272D01*
X257934Y171272D01*
D02*
G37*
G36*
X286066Y166020D02*
G74*
D01*
G02X281768Y161721I6924J2625*
G01*
X281768Y161721D01*
X281768Y166020D01*
X286066Y166020D01*
D02*
G37*
G36*
X276516Y161721D02*
G74*
D01*
G02X272217Y166020I2626J6925*
G01*
X272217Y166020D01*
X276516Y166020D01*
X276516Y161721D01*
D02*
G37*
G36*
X271783Y166020D02*
G74*
D01*
G02X267484Y161721I6925J2626*
G01*
X267484Y161721D01*
X267484Y166020D01*
X271783Y166020D01*
D02*
G37*
G36*
X255425Y162000D02*
G75*
D01*
G02X255425Y162000I1181J0*
G01*
D02*
G37*
G36*
X255376Y158757D02*
G74*
D01*
G02X253363Y160770I1230J3243*
G01*
X253363Y160770D01*
X255376Y160770D01*
X255376Y158757D01*
D02*
G37*
G36*
X259849Y160770D02*
G74*
D01*
G02X257836Y158757I3243J1230*
G01*
X257836Y158757D01*
X257836Y160770D01*
X259849Y160770D01*
D02*
G37*
G36*
X258447Y164940D02*
G74*
D01*
G02X257934Y166020I6410J3707*
G01*
X257934Y166020D01*
X262232Y166020D01*
X262232Y161721D01*
G74*
D01*
G02X259807Y163230I2627J6924*
G01*
X259807Y163230D01*
X257836Y163230D01*
X257836Y165243D01*
G74*
D01*
G02X258447Y164940I1228J3243*
G01*
D02*
G37*
%LPD*%
G36*
X365552Y230522D02*
G75*
D01*
G03X371533Y227624I4409J1478*
G01*
X371533Y227624D01*
X378086Y221071D01*
X378086Y213194D01*
X376065Y211173D01*
X374536Y211173D01*
G75*
D01*
G03X372010Y216174I-4575J828*
G01*
X372010Y216174D01*
X372010Y217826D01*
G75*
D01*
G03X368847Y226514I-2043J4176*
G01*
X368847Y226514D01*
X366593Y228769D01*
G74*
D01*
G03X365930Y229210I1423J1420*
G01*
G75*
D01*
G03X365166Y229360I-762J-1859*
G01*
X365166Y229360D01*
X340486Y229360D01*
X339324Y230522D01*
X365552Y230522D01*
D02*
G37*
G36*
X383507Y196809D02*
X383507Y196809D01*
X382215Y195518D01*
G74*
D01*
G03X382056Y195531I243J1994*
G01*
G75*
D01*
G03X381967Y195533I-90J-2006*
G01*
X381967Y195533D01*
X377721Y195533D01*
G75*
D01*
G03X378838Y199996I-4220J3428*
G01*
X378838Y199996D01*
X383993Y205151D01*
X384232Y204912D01*
G74*
D01*
G03X385024Y204424I1421J1420*
G01*
G75*
D01*
G03X385653Y204323I629J1908*
G01*
X385653Y204323D01*
X387604Y204323D01*
G75*
D01*
G03X383507Y196809I895J-5362*
G01*
D02*
G37*
G36*
X226601Y169500D02*
G74*
D01*
G02X230000Y166101I1601J5000*
G01*
G74*
D01*
G02X233399Y169500I5000J1601*
G01*
G74*
D01*
G02X230000Y172899I1601J5000*
G01*
G74*
D01*
G02X226601Y169500I5000J1601*
G01*
D02*
G37*
G36*
X226601Y179500D02*
G74*
D01*
G02X230000Y176101I1601J5000*
G01*
G74*
D01*
G02X233399Y179500I5000J1601*
G01*
G74*
D01*
G02X230000Y182899I1601J5000*
G01*
G74*
D01*
G02X226601Y179500I5000J1601*
G01*
D02*
G37*
G36*
X226601Y189500D02*
G74*
D01*
G02X230000Y186101I1601J5000*
G01*
G74*
D01*
G02X233399Y189500I5000J1601*
G01*
G74*
D01*
G02X230000Y192899I1601J5000*
G01*
G74*
D01*
G02X226601Y189500I5000J1601*
G01*
D02*
G37*
G36*
X226601Y199500D02*
G74*
D01*
G02X230000Y196101I1601J5000*
G01*
G74*
D01*
G02X233399Y199500I5000J1601*
G01*
G74*
D01*
G02X230000Y202899I1601J5000*
G01*
G74*
D01*
G02X226601Y199500I5000J1601*
G01*
D02*
G37*
G36*
X226601Y209500D02*
G74*
D01*
G02X230000Y206101I1601J5000*
G01*
G74*
D01*
G02X233399Y209500I5000J1601*
G01*
G74*
D01*
G02X230000Y212899I1601J5000*
G01*
G74*
D01*
G02X226601Y209500I5000J1601*
G01*
D02*
G37*
G36*
X226601Y219500D02*
G74*
D01*
G02X230000Y216101I1601J5000*
G01*
G74*
D01*
G02X233399Y219500I5000J1601*
G01*
G74*
D01*
G02X230000Y222899I1601J5000*
G01*
G74*
D01*
G02X226601Y219500I5000J1601*
G01*
D02*
G37*
G36*
X226601Y229500D02*
G74*
D01*
G02X230000Y226101I1601J5000*
G01*
G74*
D01*
G02X233399Y229500I5000J1601*
G01*
G74*
D01*
G02X230000Y232899I1601J5000*
G01*
G74*
D01*
G02X226601Y229500I5000J1601*
G01*
D02*
G37*
G36*
X226601Y239500D02*
G74*
D01*
G02X230000Y236101I1601J5000*
G01*
G74*
D01*
G02X233399Y239500I5000J1601*
G01*
G74*
D01*
G02X230000Y242899I1601J5000*
G01*
G74*
D01*
G02X226601Y239500I5000J1601*
G01*
D02*
G37*
G36*
X406601Y179500D02*
G74*
D01*
G03X410000Y182899I1601J5000*
G01*
G74*
D01*
G03X413399Y179500I5000J1601*
G01*
G74*
D01*
G03X410000Y176101I1601J5000*
G01*
G74*
D01*
G03X406601Y179500I5000J1601*
G01*
D02*
G37*
G36*
X406601Y189500D02*
G74*
D01*
G03X410000Y192899I1601J5000*
G01*
G74*
D01*
G03X413399Y189500I5000J1601*
G01*
G74*
D01*
G03X410000Y186101I1601J5000*
G01*
G74*
D01*
G03X406601Y189500I5000J1601*
G01*
D02*
G37*
G36*
X406601Y199500D02*
G74*
D01*
G03X410000Y202899I1601J5000*
G01*
G74*
D01*
G03X413399Y199500I5000J1601*
G01*
G74*
D01*
G03X410000Y196101I1601J5000*
G01*
G74*
D01*
G03X406601Y199500I5000J1601*
G01*
D02*
G37*
G36*
X406601Y209500D02*
G74*
D01*
G03X410000Y212899I1601J5000*
G01*
G74*
D01*
G03X413399Y209500I5000J1601*
G01*
G74*
D01*
G03X410000Y206101I1601J5000*
G01*
G74*
D01*
G03X406601Y209500I5000J1601*
G01*
D02*
G37*
G36*
X406601Y219500D02*
G74*
D01*
G03X410000Y222899I1601J5000*
G01*
G74*
D01*
G03X413399Y219500I5000J1601*
G01*
G74*
D01*
G03X410000Y216101I1601J5000*
G01*
G74*
D01*
G03X406601Y219500I5000J1601*
G01*
D02*
G37*
G36*
X406601Y229500D02*
G74*
D01*
G03X410000Y232899I1601J5000*
G01*
G74*
D01*
G03X413399Y229500I5000J1601*
G01*
G74*
D01*
G03X410000Y226101I1601J5000*
G01*
G74*
D01*
G03X406601Y229500I5000J1601*
G01*
D02*
G37*
G36*
X406601Y239500D02*
G74*
D01*
G03X410000Y242899I1601J5000*
G01*
G74*
D01*
G03X413399Y239500I5000J1601*
G01*
G74*
D01*
G03X410000Y236101I1601J5000*
G01*
G74*
D01*
G03X406601Y239500I5000J1601*
G01*
D02*
G37*
G36*
X406601Y169500D02*
G74*
D01*
G03X410000Y172899I1601J5000*
G01*
G74*
D01*
G03X413399Y169500I5000J1601*
G01*
G74*
D01*
G03X410389Y167010I1601J5000*
G01*
X410389Y167010D01*
X409611Y167010D01*
G74*
D01*
G03X406601Y169500I4611J2509*
G01*
D02*
G37*
G36*
X230000Y251661D02*
G74*
D01*
G02X227288Y249225I4999J2838*
G01*
G74*
D01*
G02X230000Y246101I2287J4725*
G01*
G74*
D01*
G02X232712Y249225I5000J1601*
G01*
G74*
D01*
G02X230000Y251661I2287J5274*
G01*
D02*
G37*
G36*
X272000Y201313D02*
G74*
D01*
G03X268957Y205522I7141J1958*
G01*
X268957Y205522D01*
X275043Y205522D01*
G74*
D01*
G03X272000Y201313I4098J6167*
G01*
D02*
G37*
G36*
X329912Y243454D02*
G75*
D01*
G03X330501Y242029I2010J-3*
G01*
X330501Y242029D01*
X331083Y241447D01*
X326382Y241447D01*
G74*
D01*
G03X328084Y244278I4847J4841*
G01*
X328084Y244278D01*
X329671Y244278D01*
X329912Y244037D01*
X329912Y243454D01*
D02*
G37*
G36*
X418990Y191088D02*
G74*
D01*
G02X416601Y189500I3990J3411*
G01*
G74*
D01*
G02X418990Y187912I1601J5000*
G01*
X418990Y187912D01*
X418990Y191088D01*
D02*
G37*
G36*
X416601Y199500D02*
G74*
D01*
G02X418990Y197912I1601J5000*
G01*
X418990Y197912D01*
X418990Y201088D01*
G74*
D01*
G02X416601Y199500I3990J3411*
G01*
D02*
G37*
G36*
X416601Y209500D02*
G74*
D01*
G02X418990Y207912I1601J5000*
G01*
X418990Y207912D01*
X418990Y211088D01*
G74*
D01*
G02X416601Y209500I3990J3411*
G01*
D02*
G37*
G36*
X416601Y219500D02*
G74*
D01*
G02X418990Y217912I1601J5000*
G01*
X418990Y217912D01*
X418990Y221088D01*
G74*
D01*
G02X416601Y219500I3990J3411*
G01*
D02*
G37*
G36*
X416601Y229500D02*
G74*
D01*
G02X418990Y227912I1601J5000*
G01*
X418990Y227912D01*
X418990Y231088D01*
G74*
D01*
G02X416601Y229500I3990J3411*
G01*
D02*
G37*
G36*
X416601Y239500D02*
G74*
D01*
G02X418990Y237912I1601J5000*
G01*
X418990Y237912D01*
X418990Y241088D01*
G74*
D01*
G02X416601Y239500I3990J3411*
G01*
D02*
G37*
G36*
X283241Y205522D02*
X283241Y205522D01*
X285422Y205522D01*
X285538Y205406D01*
X285538Y203087D01*
G74*
D01*
G03X283241Y205522I6396J3732*
G01*
D02*
G37*
G36*
X266827Y229915D02*
G74*
D01*
G03X266772Y229990I2824J2013*
G01*
X266772Y229990D01*
X282215Y229990D01*
X282290Y229915D01*
X266827Y229915D01*
D02*
G37*
G36*
X416686Y179528D02*
G74*
D01*
G02X416601Y179500I1685J4972*
G01*
G74*
D01*
G02X416644Y179486I1604J4999*
G01*
X416644Y179486D01*
X416686Y179528D01*
D02*
G37*
G54D11*
X301243Y262478D02*
X418283Y262478D01*
G74*
D01*
G02X419707Y261887I1J2009*
G01*
X422419Y259175D01*
G74*
D01*
G02X423010Y257752I1418J1423*
G01*
X423010Y181000D01*
G75*
D01*
G02X422419Y179577I-2010J1*
G01*
X419694Y176852D01*
G75*
D01*
G02X416601Y169500I-4694J-2352*
G01*
G75*
D01*
G02X410000Y162899I-1601J-5000*
G01*
G75*
D01*
G02X400392Y167016I-5000J1602*
G01*
X399418Y167990D01*
X325827Y167990D01*
G75*
D01*
G02X320990Y172827I-2824J2013*
G01*
X320990Y202995D01*
G75*
D01*
G02X321579Y204421I2010J4*
G01*
X327948Y210791D01*
G75*
D01*
G02X330791Y207948I6052J3209*
G01*
X325553Y202710D01*
X325553Y201230D01*
X325010Y201230D01*
X325010Y198770D01*
X325553Y198770D01*
X325553Y196757D01*
G74*
D01*
G02X325010Y197019I1230J3243*
G01*
X325010Y192818D01*
G74*
D01*
G02X325803Y193243I2021J2818*
G01*
X325803Y191230D01*
X325010Y191230D01*
X325010Y188770D01*
X325803Y188770D01*
X325803Y186757D01*
G74*
D01*
G02X325010Y187182I1228J3243*
G01*
X325010Y172827D01*
G74*
D01*
G02X325827Y172010I2009J2826*
G01*
X400248Y172010D01*
G75*
D01*
G02X400381Y172005I-9J-2010*
G01*
G75*
D01*
G02X403399Y179500I4618J2496*
G01*
G75*
D01*
G02X403399Y189500I1601J5000*
G01*
G74*
D01*
G02X399818Y193658I1601J5000*
G01*
X391273Y185113D01*
G74*
D01*
G02X389849Y184522I1423J1418*
G01*
X355932Y184522D01*
G75*
D01*
G02X354508Y185110I-4J2009*
G01*
X345651Y193967D01*
G75*
D01*
G02X348493Y196809I-2151J4993*
G01*
X356762Y188541D01*
X389017Y188541D01*
X397740Y197265D01*
X397740Y198452D01*
X391869Y204323D01*
X389396Y204323D01*
G75*
D01*
G02X386349Y193967I-904J-5360*
G01*
X384012Y191631D01*
G75*
D01*
G02X381818Y191197I-1421J1420*
G01*
X381566Y191301D01*
G74*
D01*
G02X381178Y191514I767J1858*
G01*
X363476Y191514D01*
G75*
D01*
G02X363036Y191563I1J2010*
G01*
G74*
D01*
G02X362055Y192103I440J1960*
G01*
X360320Y193837D01*
G75*
D01*
G02X360965Y203807I-1819J5124*
G01*
X365929Y208771D01*
G74*
D01*
G02X366337Y209086I1422J1420*
G01*
G75*
D01*
G02X367990Y216211I3624J2913*
G01*
X367990Y217788D01*
G75*
D01*
G02X365736Y223942I1971J4212*
G01*
X364337Y225341D01*
X339654Y225341D01*
G75*
D01*
G02X339327Y225367I-5J2009*
G01*
G74*
D01*
G02X338232Y225929I326J1982*
G01*
X335633Y228529D01*
G74*
D01*
G02X335047Y228667I162J2001*
G01*
G74*
D01*
G02X334376Y229110I749J1864*
G01*
X332110Y231376D01*
G75*
D01*
G02X331522Y232801I1421J1420*
G01*
X331522Y237428D01*
X318528Y237428D01*
G75*
D01*
G02X317422Y230580I-553J-3424*
G01*
X313738Y226896D01*
X313329Y226487D01*
G74*
D01*
G02X311906Y225896I1423J1418*
G01*
X266827Y225896D01*
G75*
D01*
G02X261228Y229990I-2800J2047*
G01*
X257755Y229990D01*
X256838Y229073D01*
X256838Y228324D01*
X263152Y222010D01*
X277921Y222010D01*
G75*
D01*
G02X277921Y217990I2826J-2010*
G01*
X262320Y217990D01*
G75*
D01*
G02X261681Y218094I-1J2010*
G01*
G74*
D01*
G02X260899Y218579I640J1905*
G01*
X253409Y226069D01*
G74*
D01*
G02X253132Y226414I1418J1422*
G01*
G75*
D01*
G02X250578Y231326I-3132J1491*
G01*
X254673Y235421D01*
G75*
D01*
G02X256097Y236010I1421J-1420*
G01*
X283126Y236010D01*
G75*
D01*
G02X289100Y232541I2831J-2003*
G01*
X290699Y232541D01*
X292260Y234102D01*
G75*
D01*
G02X295102Y231260I3420J578*
G01*
X293757Y229915D01*
X311073Y229915D01*
X314580Y233422D01*
G75*
D01*
G02X317472Y237428I3419J578*
G01*
X313270Y237428D01*
X311420Y235578D01*
G75*
D01*
G02X308578Y238420I-3420J-578*
G01*
X311017Y240859D01*
G74*
D01*
G02X311773Y241334I1420J1421*
G01*
G75*
D01*
G02X312438Y241447I664J-1896*
G01*
X316688Y241447D01*
G75*
D01*
G02X328084Y248297I4848J4840*
G01*
X330503Y248297D01*
G74*
D01*
G02X331928Y247705I1J2009*
G01*
X333340Y246294D01*
G74*
D01*
G02X333932Y244869I1418J1425*
G01*
X333932Y244283D01*
X334356Y243859D01*
X336343Y243859D01*
X336343Y241872D01*
X336950Y241264D01*
G74*
D01*
G02X337541Y239841I1418J1423*
G01*
X337541Y234541D01*
X366067Y234541D01*
G75*
D01*
G02X374357Y230485I3897J-2536*
G01*
X381515Y223327D01*
G74*
D01*
G02X382106Y221904I1418J1423*
G01*
X382106Y212361D01*
G75*
D01*
G02X381515Y210938I-2010J1*
G01*
X378321Y207744D01*
G74*
D01*
G02X377075Y207161I1423J1418*
G01*
G75*
D01*
G02X376896Y207153I-179J2001*
G01*
X374532Y207153D01*
X373310Y205932D01*
G74*
D01*
G02X372719Y205521I1423J1416*
G01*
G75*
D01*
G02X371883Y205341I-831J1829*
G01*
X368183Y205341D01*
X363623Y200781D01*
G75*
D01*
G02X363346Y196496I-5122J-1820*
G01*
X364309Y195533D01*
X369279Y195533D01*
G75*
D01*
G02X376591Y203433I4221J3427*
G01*
X381740Y208582D01*
G74*
D01*
G02X382600Y209092I1423J1419*
G01*
G75*
D01*
G02X383165Y209173I565J-1928*
G01*
X384819Y209173D01*
G75*
D01*
G02X386244Y208584I3J-2010*
G01*
X386485Y208343D01*
X392701Y208343D01*
G74*
D01*
G02X394126Y207751I0J2010*
G01*
X401168Y200709D01*
G74*
D01*
G02X401760Y199284I1418J1425*
G01*
X401760Y198631D01*
G74*
D01*
G02X403399Y199500I3240J4131*
G01*
G75*
D01*
G02X403399Y209500I1601J5000*
G01*
G75*
D01*
G02X403399Y219500I1601J5000*
G01*
G75*
D01*
G02X403399Y229500I1601J5000*
G01*
G75*
D01*
G02X403399Y239500I1601J5000*
G01*
G75*
D01*
G02X410000Y246101I1601J5000*
G01*
G75*
D01*
G02X418990Y247912I5000J-1601*
G01*
X418990Y251088D01*
G74*
D01*
G02X416862Y249591I3990J3411*
G01*
X416862Y252638D01*
X418990Y252638D01*
X418990Y256362D01*
X416862Y256362D01*
X416862Y258459D01*
X413138Y258459D01*
X413138Y256362D01*
X410091Y256362D01*
G74*
D01*
G02X411552Y258459I4909J1862*
G01*
X408448Y258459D01*
G74*
D01*
G02X409909Y256362I3447J3959*
G01*
X406862Y256362D01*
X406862Y258459D01*
X403138Y258459D01*
X403138Y256362D01*
X400091Y256362D01*
G74*
D01*
G02X401552Y258459I4909J1862*
G01*
X400147Y258459D01*
G74*
D01*
G02X400243Y258230I3148J1454*
G01*
X398230Y258230D01*
X398230Y258459D01*
X395770Y258459D01*
X395770Y258230D01*
X393757Y258230D01*
G74*
D01*
G02X393853Y258459I3244J1225*
G01*
X391446Y258459D01*
G74*
D01*
G02X392243Y257230I2446J2459*
G01*
X390230Y257230D01*
X390230Y258459D01*
X387770Y258459D01*
X387770Y257230D01*
X385757Y257230D01*
G74*
D01*
G02X386554Y258459I3243J1230*
G01*
X374446Y258459D01*
G74*
D01*
G02X375243Y257230I2446J2459*
G01*
X373230Y257230D01*
X373230Y258459D01*
X370770Y258459D01*
X370770Y257230D01*
X368757Y257230D01*
G74*
D01*
G02X369554Y258459I3243J1230*
G01*
X359147Y258459D01*
G74*
D01*
G02X359243Y258230I3148J1454*
G01*
X357230Y258230D01*
X357230Y258459D01*
X354770Y258459D01*
X354770Y258230D01*
X352757Y258230D01*
G74*
D01*
G02X352853Y258459I3244J1225*
G01*
X341446Y258459D01*
G74*
D01*
G02X342243Y257230I2446J2459*
G01*
X340230Y257230D01*
X340230Y258459D01*
X337770Y258459D01*
X337770Y257230D01*
X335757Y257230D01*
G74*
D01*
G02X336554Y258459I3243J1230*
G01*
X302074Y258459D01*
X296860Y253245D01*
X296860Y253245D01*
X293113Y249497D01*
G75*
D01*
G02X290271Y252339I-6052J-3210*
G01*
X299821Y261890D01*
G75*
D01*
G02X301243Y262478I1420J-1421*
G01*
X416557Y253245D02*
G75*
D01*
G02X416557Y253245I-1557J1255*
G01*
X406862Y249591D02*
X406862Y252638D01*
X409909Y252638D01*
G74*
D01*
G02X406862Y249591I4909J1862*
G01*
X340230Y252757D02*
X340230Y254770D01*
X342243Y254770D01*
G74*
D01*
G02X340230Y252757I3243J1230*
G01*
X370770Y252757D02*
G74*
D01*
G02X368757Y254770I1230J3243*
G01*
X370770Y254770D01*
X370770Y252757D01*
X373230Y252757D02*
X373230Y254770D01*
X375243Y254770D01*
G74*
D01*
G02X373230Y252757I3243J1230*
G01*
X387770Y252757D02*
G74*
D01*
G02X385757Y254770I1230J3243*
G01*
X387770Y254770D01*
X387770Y252757D01*
X390230Y252757D02*
X390230Y254770D01*
X392243Y254770D01*
G74*
D01*
G02X390230Y252757I3243J1230*
G01*
X406557Y253245D02*
G75*
D01*
G02X406557Y253245I-1557J1255*
G01*
X337770Y252757D02*
G74*
D01*
G02X335757Y254770I1230J3243*
G01*
X337770Y254770D01*
X337770Y252757D01*
X237288Y249225D02*
G75*
D01*
G02X236601Y239500I-2285J-4725*
G01*
G75*
D01*
G02X236601Y229500I-1601J-5000*
G01*
G75*
D01*
G02X236601Y219500I-1601J-5000*
G01*
G75*
D01*
G02X236601Y209500I-1601J-5000*
G01*
G75*
D01*
G02X236601Y199500I-1601J-5000*
G01*
G75*
D01*
G02X236601Y189500I-1601J-5000*
G01*
G75*
D01*
G02X236601Y179500I-1601J-5000*
G01*
G75*
D01*
G02X236601Y169500I-1601J-5000*
G01*
G75*
D01*
G02X230000Y162899I-1601J-5000*
G01*
G75*
D01*
G02X223399Y169500I-5000J1601*
G01*
G75*
D01*
G02X223399Y179500I1601J5000*
G01*
G75*
D01*
G02X223399Y189500I1601J5000*
G01*
G75*
D01*
G02X223399Y199500I1601J5000*
G01*
G75*
D01*
G02X223399Y209500I1601J5000*
G01*
G75*
D01*
G02X223399Y219500I1601J5000*
G01*
G75*
D01*
G02X223399Y229500I1601J5000*
G01*
G75*
D01*
G02X223399Y239500I1601J5000*
G01*
G75*
D01*
G02X222712Y249225I1601J5000*
G01*
G75*
D01*
G02X230000Y257339I2290J5273*
G01*
G75*
D01*
G02X237288Y249225I4998J-2841*
G01*
X311127Y167036D02*
X309956Y167036D01*
G75*
D01*
G02X309438Y167104I0J2010*
G01*
G74*
D01*
G02X308531Y167627I515J1942*
G01*
X286126Y190032D01*
G75*
D01*
G02X285538Y191457I1421J1420*
G01*
X285538Y195621D01*
G75*
D01*
G02X272000Y197395I-6396J3731*
G01*
G75*
D01*
G02X260761Y205523I-7141J1960*
G01*
G74*
D01*
G02X259403Y206110I62J2007*
G01*
X259110Y206403D01*
G75*
D01*
G02X258522Y207828I1421J1420*
G01*
X258522Y212490D01*
X256032Y214981D01*
G74*
D01*
G02X255445Y216310I1420J1421*
G01*
X252327Y219427D01*
X246827Y219427D01*
G75*
D01*
G02X245403Y220016I-2J2010*
G01*
X241110Y224309D01*
G75*
D01*
G02X240522Y225733I1421J1420*
G01*
X240522Y231357D01*
G75*
D01*
G02X241110Y232783I2009J6*
G01*
X256036Y247709D01*
G74*
D01*
G02X257251Y248287I1421J1420*
G01*
G75*
D01*
G02X257457Y248297I200J-1999*
G01*
X263275Y248297D01*
G75*
D01*
G02X263275Y244278I6549J-2009*
G01*
X258289Y244278D01*
X244541Y230530D01*
X244541Y226562D01*
X247657Y223447D01*
X253160Y223447D01*
G74*
D01*
G02X254583Y222856I1J2010*
G01*
X258871Y218568D01*
G74*
D01*
G02X259460Y217236I1418J1423*
G01*
X261950Y214746D01*
G74*
D01*
G02X262395Y214075I1418J1423*
G01*
G74*
D01*
G02X262770Y214243I1603J3075*
G01*
X262770Y212230D01*
X262541Y212230D01*
X262541Y209770D01*
X262770Y209770D01*
X262770Y209541D01*
X265230Y209541D01*
X265230Y209770D01*
X267243Y209770D01*
G74*
D01*
G02X267147Y209541I3244J1225*
G01*
X286254Y209541D01*
G74*
D01*
G02X287678Y208950I0J2010*
G01*
X288966Y207662D01*
G74*
D01*
G02X289557Y206239I1418J1423*
G01*
X289557Y200592D01*
G75*
D01*
G02X289557Y198117I7301J-1237*
G01*
X289557Y192285D01*
X310786Y171056D01*
X311127Y171056D01*
G75*
D01*
G02X311127Y167036I2826J-2010*
G01*
X413138Y249591D02*
G74*
D01*
G02X410091Y252638I1862J4909*
G01*
X413138Y252638D01*
X413138Y249591D01*
X337819Y256000D02*
G75*
D01*
G02X337819Y256000I1181J0*
G01*
X354770Y253757D02*
G74*
D01*
G02X352757Y255770I1230J3243*
G01*
X354770Y255770D01*
X354770Y253757D01*
X359243Y255770D02*
G74*
D01*
G02X357230Y253757I3243J1230*
G01*
X357230Y255770D01*
X359243Y255770D01*
X354819Y257000D02*
G75*
D01*
G02X354819Y257000I1181J0*
G01*
X370819Y256000D02*
G75*
D01*
G02X370819Y256000I1181J0*
G01*
X387819Y256000D02*
G75*
D01*
G02X387819Y256000I1181J0*
G01*
X400243Y255770D02*
G74*
D01*
G02X398230Y253757I3243J1230*
G01*
X398230Y255770D01*
X400243Y255770D01*
X395770Y253757D02*
G74*
D01*
G02X393757Y255770I1230J3243*
G01*
X395770Y255770D01*
X395770Y253757D01*
X395819Y257000D02*
G75*
D01*
G02X395819Y257000I1181J0*
G01*
X403138Y249591D02*
G74*
D01*
G02X400091Y252638I1862J4909*
G01*
X403138Y252638D01*
X403138Y249591D01*
X335622Y246288D02*
G75*
D01*
G02X335622Y246288I3150J0*
G01*
X341201Y252693D02*
G74*
D01*
G02X345177Y248717I2429J6405*
G01*
X341201Y248717D01*
X341201Y252693D01*
X332367Y248717D02*
G74*
D01*
G02X336343Y252693I6405J2429*
G01*
X336343Y248717D01*
X332367Y248717D01*
X345177Y243859D02*
G74*
D01*
G02X341201Y239883I6405J2429*
G01*
X341201Y243859D01*
X345177Y243859D01*
X384078Y248717D02*
G74*
D01*
G02X388054Y252693I6405J2429*
G01*
X388054Y248717D01*
X384078Y248717D01*
X388054Y239883D02*
G74*
D01*
G02X384078Y243859I2429J6405*
G01*
X388054Y243859D01*
X388054Y239883D01*
X396888Y243859D02*
G74*
D01*
G02X392912Y239883I6405J2429*
G01*
X392912Y243859D01*
X396888Y243859D01*
X387333Y246288D02*
G75*
D01*
G02X387333Y246288I3150J0*
G01*
X392912Y252693D02*
G74*
D01*
G02X396888Y248717I2429J6405*
G01*
X392912Y248717D01*
X392912Y252693D01*
X366841Y248717D02*
G74*
D01*
G02X370817Y252693I6405J2429*
G01*
X370817Y248717D01*
X366841Y248717D01*
X370817Y239883D02*
G74*
D01*
G02X366841Y243859I2429J6405*
G01*
X370817Y243859D01*
X370817Y239883D01*
X379651Y243859D02*
G74*
D01*
G02X375675Y239883I6405J2429*
G01*
X375675Y243859D01*
X379651Y243859D01*
X370096Y246288D02*
G75*
D01*
G02X370096Y246288I3150J0*
G01*
X375675Y252693D02*
G74*
D01*
G02X379651Y248717I2429J6405*
G01*
X375675Y248717D01*
X375675Y252693D01*
X349604Y248717D02*
G74*
D01*
G02X353580Y252693I6405J2429*
G01*
X353580Y248717D01*
X349604Y248717D01*
X362414Y243859D02*
G74*
D01*
G02X358438Y239883I6405J2429*
G01*
X358438Y243859D01*
X362414Y243859D01*
X353580Y239883D02*
G74*
D01*
G02X349604Y243859I2429J6405*
G01*
X353580Y243859D01*
X353580Y239883D01*
X352859Y246288D02*
G75*
D01*
G02X352859Y246288I3150J0*
G01*
X358438Y252693D02*
G74*
D01*
G02X362414Y248717I2429J6405*
G01*
X358438Y248717D01*
X358438Y252693D01*
X325601Y200000D02*
G75*
D01*
G02X325601Y200000I1181J0*
G01*
X328012Y203243D02*
G74*
D01*
G02X330026Y201230I1229J3243*
G01*
X328012Y201230D01*
X328012Y203243D01*
X328262Y193243D02*
G74*
D01*
G02X330276Y191230I1229J3243*
G01*
X328262Y191230D01*
X328262Y193243D01*
X330026Y198770D02*
G74*
D01*
G02X328012Y196757I3243J1231*
G01*
X328012Y198770D01*
X330026Y198770D01*
X330276Y188770D02*
G74*
D01*
G02X328262Y186757I3243J1231*
G01*
X328262Y188770D01*
X330276Y188770D01*
X325851Y190000D02*
G75*
D01*
G02X325851Y190000I1181J0*
G01*
X281768Y175570D02*
G74*
D01*
G02X286066Y171272I2626J6924*
G01*
X281768Y171272D01*
X281768Y175570D01*
X289453Y168646D02*
G75*
D01*
G02X289453Y168646I7405J0*
G01*
X262819Y211000D02*
G75*
D01*
G02X262819Y211000I1181J0*
G01*
X297448Y246288D02*
G75*
D01*
G02X297448Y246288I6850J0*
G01*
X239736Y168646D02*
G75*
D01*
G02X239736Y168646I7406J0*
G01*
X239736Y199354D02*
G75*
D01*
G02X239736Y199354I7406J0*
G01*
X253363Y163230D02*
G74*
D01*
G02X255376Y165243I3243J1230*
G01*
X255376Y163230D01*
X253363Y163230D01*
X246757Y212624D02*
G74*
D01*
G02X248770Y214637I3243J1230*
G01*
X248770Y212624D01*
X246757Y212624D01*
X251230Y214637D02*
G74*
D01*
G02X253243Y212624I1230J3243*
G01*
X251230Y212624D01*
X251230Y214637D01*
X265230Y214243D02*
G74*
D01*
G02X267243Y212230I1230J3243*
G01*
X265230Y212230D01*
X265230Y214243D01*
X248819Y211394D02*
G75*
D01*
G02X248819Y211394I1181J0*
G01*
X248770Y208151D02*
G74*
D01*
G02X246757Y210164I1230J3243*
G01*
X248770Y210164D01*
X248770Y208151D01*
X253243Y210164D02*
G74*
D01*
G02X251230Y208151I3243J1230*
G01*
X251230Y210164D01*
X253243Y210164D01*
X277173Y168646D02*
G75*
D01*
G02X277173Y168646I1969J0*
G01*
X272217Y171272D02*
G74*
D01*
G02X276516Y175570I6924J2627*
G01*
X276516Y171272D01*
X272217Y171272D01*
X262890Y168646D02*
G75*
D01*
G02X262890Y168646I1968J0*
G01*
X267484Y175570D02*
G74*
D01*
G02X271783Y171272I2625J6924*
G01*
X267484Y171272D01*
X267484Y175570D01*
X257934Y171272D02*
G74*
D01*
G02X262232Y175570I6924J2626*
G01*
X262232Y171272D01*
X257934Y171272D01*
X286066Y166020D02*
G74*
D01*
G02X281768Y161721I6924J2625*
G01*
X281768Y166020D01*
X286066Y166020D01*
X276516Y161721D02*
G74*
D01*
G02X272217Y166020I2626J6925*
G01*
X276516Y166020D01*
X276516Y161721D01*
X271783Y166020D02*
G74*
D01*
G02X267484Y161721I6925J2626*
G01*
X267484Y166020D01*
X271783Y166020D01*
X255425Y162000D02*
G75*
D01*
G02X255425Y162000I1181J0*
G01*
X255376Y158757D02*
G74*
D01*
G02X253363Y160770I1230J3243*
G01*
X255376Y160770D01*
X255376Y158757D01*
X259849Y160770D02*
G74*
D01*
G02X257836Y158757I3243J1230*
G01*
X257836Y160770D01*
X259849Y160770D01*
X258447Y164940D02*
G74*
D01*
G02X257934Y166020I6410J3707*
G01*
X262232Y166020D01*
X262232Y161721D01*
G74*
D01*
G02X259807Y163230I2627J6924*
G01*
X257836Y163230D01*
X257836Y165243D01*
G74*
D01*
G02X258447Y164940I1228J3243*
G01*
X214000Y265000D02*
X214000Y155000D01*
X424000Y155000D01*
X424000Y265000D01*
X214000Y265000D01*
X226601Y169500D02*
G74*
D01*
G02X230000Y166101I1601J5000*
G01*
G74*
D01*
G02X233399Y169500I5000J1601*
G01*
G74*
D01*
G02X230000Y172899I1601J5000*
G01*
G74*
D01*
G02X226601Y169500I5000J1601*
G01*
X406601Y169500D02*
G74*
D01*
G03X410000Y172899I1601J5000*
G01*
G74*
D01*
G03X413399Y169500I5000J1601*
G01*
G74*
D01*
G03X410389Y167010I1601J5000*
G01*
X409611Y167010D01*
G74*
D01*
G03X406601Y169500I4611J2509*
G01*
X226601Y179500D02*
G74*
D01*
G02X230000Y176101I1601J5000*
G01*
G74*
D01*
G02X233399Y179500I5000J1601*
G01*
G74*
D01*
G02X230000Y182899I1601J5000*
G01*
G74*
D01*
G02X226601Y179500I5000J1601*
G01*
X406601Y179500D02*
G74*
D01*
G03X410000Y182899I1601J5000*
G01*
G74*
D01*
G03X413399Y179500I5000J1601*
G01*
G74*
D01*
G03X410000Y176101I1601J5000*
G01*
G74*
D01*
G03X406601Y179500I5000J1601*
G01*
X416686Y179528D02*
G74*
D01*
G02X416601Y179500I1685J4972*
G01*
G74*
D01*
G02X416644Y179486I1604J4999*
G01*
X416686Y179528D01*
X226601Y189500D02*
G74*
D01*
G02X230000Y186101I1601J5000*
G01*
G74*
D01*
G02X233399Y189500I5000J1601*
G01*
G74*
D01*
G02X230000Y192899I1601J5000*
G01*
G74*
D01*
G02X226601Y189500I5000J1601*
G01*
X406601Y189500D02*
G74*
D01*
G03X410000Y192899I1601J5000*
G01*
G74*
D01*
G03X413399Y189500I5000J1601*
G01*
G74*
D01*
G03X410000Y186101I1601J5000*
G01*
G74*
D01*
G03X406601Y189500I5000J1601*
G01*
X418990Y191088D02*
G74*
D01*
G02X416601Y189500I3990J3411*
G01*
G74*
D01*
G02X418990Y187912I1601J5000*
G01*
X418990Y191088D01*
X226601Y199500D02*
G74*
D01*
G02X230000Y196101I1601J5000*
G01*
G74*
D01*
G02X233399Y199500I5000J1601*
G01*
G74*
D01*
G02X230000Y202899I1601J5000*
G01*
G74*
D01*
G02X226601Y199500I5000J1601*
G01*
X383507Y196809D02*
X382215Y195518D01*
G74*
D01*
G03X382056Y195531I243J1994*
G01*
G75*
D01*
G03X381967Y195533I-90J-2006*
G01*
X377721Y195533D01*
G75*
D01*
G03X378838Y199996I-4220J3428*
G01*
X383993Y205151D01*
X384232Y204912D01*
G74*
D01*
G03X385024Y204424I1421J1420*
G01*
G75*
D01*
G03X385653Y204323I629J1908*
G01*
X387604Y204323D01*
G75*
D01*
G03X383507Y196809I895J-5362*
G01*
X406601Y199500D02*
G74*
D01*
G03X410000Y202899I1601J5000*
G01*
G74*
D01*
G03X413399Y199500I5000J1601*
G01*
G74*
D01*
G03X410000Y196101I1601J5000*
G01*
G74*
D01*
G03X406601Y199500I5000J1601*
G01*
X416601Y199500D02*
G74*
D01*
G02X418990Y197912I1601J5000*
G01*
X418990Y201088D01*
G74*
D01*
G02X416601Y199500I3990J3411*
G01*
X226601Y209500D02*
G74*
D01*
G02X230000Y206101I1601J5000*
G01*
G74*
D01*
G02X233399Y209500I5000J1601*
G01*
G74*
D01*
G02X230000Y212899I1601J5000*
G01*
G74*
D01*
G02X226601Y209500I5000J1601*
G01*
X272000Y201313D02*
G74*
D01*
G03X268957Y205522I7141J1958*
G01*
X275043Y205522D01*
G74*
D01*
G03X272000Y201313I4098J6167*
G01*
X283241Y205522D02*
X285422Y205522D01*
X285538Y205406D01*
X285538Y203087D01*
G74*
D01*
G03X283241Y205522I6396J3732*
G01*
X406601Y209500D02*
G74*
D01*
G03X410000Y212899I1601J5000*
G01*
G74*
D01*
G03X413399Y209500I5000J1601*
G01*
G74*
D01*
G03X410000Y206101I1601J5000*
G01*
G74*
D01*
G03X406601Y209500I5000J1601*
G01*
X365552Y230522D02*
G75*
D01*
G03X371533Y227624I4409J1478*
G01*
X378086Y221071D01*
X378086Y213194D01*
X376065Y211173D01*
X374536Y211173D01*
G75*
D01*
G03X372010Y216174I-4575J828*
G01*
X372010Y217826D01*
G75*
D01*
G03X368847Y226514I-2043J4176*
G01*
X366593Y228769D01*
G74*
D01*
G03X365930Y229210I1423J1420*
G01*
G75*
D01*
G03X365166Y229360I-762J-1859*
G01*
X340486Y229360D01*
X339324Y230522D01*
X365552Y230522D01*
X416601Y209500D02*
G74*
D01*
G02X418990Y207912I1601J5000*
G01*
X418990Y211088D01*
G74*
D01*
G02X416601Y209500I3990J3411*
G01*
X226601Y219500D02*
G74*
D01*
G02X230000Y216101I1601J5000*
G01*
G74*
D01*
G02X233399Y219500I5000J1601*
G01*
G74*
D01*
G02X230000Y222899I1601J5000*
G01*
G74*
D01*
G02X226601Y219500I5000J1601*
G01*
X406601Y219500D02*
G74*
D01*
G03X410000Y222899I1601J5000*
G01*
G74*
D01*
G03X413399Y219500I5000J1601*
G01*
G74*
D01*
G03X410000Y216101I1601J5000*
G01*
G74*
D01*
G03X406601Y219500I5000J1601*
G01*
X416601Y219500D02*
G74*
D01*
G02X418990Y217912I1601J5000*
G01*
X418990Y221088D01*
G74*
D01*
G02X416601Y219500I3990J3411*
G01*
X226601Y229500D02*
G74*
D01*
G02X230000Y226101I1601J5000*
G01*
G74*
D01*
G02X233399Y229500I5000J1601*
G01*
G74*
D01*
G02X230000Y232899I1601J5000*
G01*
G74*
D01*
G02X226601Y229500I5000J1601*
G01*
X406601Y229500D02*
G74*
D01*
G03X410000Y232899I1601J5000*
G01*
G74*
D01*
G03X413399Y229500I5000J1601*
G01*
G74*
D01*
G03X410000Y226101I1601J5000*
G01*
G74*
D01*
G03X406601Y229500I5000J1601*
G01*
X416601Y229500D02*
G74*
D01*
G02X418990Y227912I1601J5000*
G01*
X418990Y231088D01*
G74*
D01*
G02X416601Y229500I3990J3411*
G01*
X226601Y239500D02*
G74*
D01*
G02X230000Y236101I1601J5000*
G01*
G74*
D01*
G02X233399Y239500I5000J1601*
G01*
G74*
D01*
G02X230000Y242899I1601J5000*
G01*
G74*
D01*
G02X226601Y239500I5000J1601*
G01*
X266827Y229915D02*
G74*
D01*
G03X266772Y229990I2824J2013*
G01*
X282215Y229990D01*
X282290Y229915D01*
X266827Y229915D01*
X406601Y239500D02*
G74*
D01*
G03X410000Y242899I1601J5000*
G01*
G74*
D01*
G03X413399Y239500I5000J1601*
G01*
G74*
D01*
G03X410000Y236101I1601J5000*
G01*
G74*
D01*
G03X406601Y239500I5000J1601*
G01*
X329912Y243454D02*
G75*
D01*
G03X330501Y242029I2010J-3*
G01*
X331083Y241447D01*
X326382Y241447D01*
G74*
D01*
G03X328084Y244278I4847J4841*
G01*
X329671Y244278D01*
X329912Y244037D01*
X329912Y243454D01*
X416601Y239500D02*
G74*
D01*
G02X418990Y237912I1601J5000*
G01*
X418990Y241088D01*
G74*
D01*
G02X416601Y239500I3990J3411*
G01*
X230000Y251661D02*
G74*
D01*
G02X227288Y249225I4999J2838*
G01*
G74*
D01*
G02X230000Y246101I2287J4725*
G01*
G74*
D01*
G02X232712Y249225I5000J1601*
G01*
G74*
D01*
G02X230000Y251661I2287J5274*
G01*
X415000Y164500D02*
X414500Y165000D01*
X405250Y165000D01*
X400250Y170000D01*
X323065Y170000D01*
X250000Y227906D02*
X256094Y234000D01*
X285953Y234000D01*
X382333Y193159D02*
X381968Y193524D01*
X382591Y193052D02*
X382333Y193159D01*
X388500Y198961D02*
X382591Y193052D01*
X381968Y193524D02*
X363476Y193524D01*
X359000Y198000D01*
X384823Y207163D02*
X383163Y207163D01*
X399750Y199284D02*
X392701Y206333D01*
X389849Y186531D02*
X399750Y196432D01*
X343500Y198961D02*
X355929Y186531D01*
X389849Y186531D01*
X399750Y196432D02*
X399750Y199284D01*
X392701Y206333D02*
X385653Y206333D01*
X384823Y207163D01*
X383163Y207163D02*
X374163Y198163D01*
X370000Y212039D02*
X370000Y222520D01*
X335797Y230531D02*
X333531Y232797D01*
X339654Y227350D02*
X336472Y230531D01*
X370000Y222520D02*
X365169Y227350D01*
X339654Y227350D01*
X336472Y230531D02*
X335797Y230531D01*
X333531Y232797D02*
X333531Y239013D01*
X333106Y239438D01*
X312438Y239438D01*
X308000Y235000D01*
X334000Y214000D02*
X323000Y203000D01*
X323000Y170000D01*
X287061Y246288D02*
X301242Y260469D01*
X421000Y181000D02*
X415000Y175000D01*
X330503Y246288D02*
X331922Y244869D01*
X321535Y246288D02*
X330503Y246288D01*
X331922Y244869D02*
X331922Y243450D01*
X335531Y239841D01*
X335531Y233626D01*
X336626Y232531D01*
X369469Y232531D01*
X380096Y212361D02*
X376898Y209163D01*
X369469Y232531D02*
X380096Y221904D01*
X380096Y212361D01*
X376898Y209163D02*
X373699Y209163D01*
X371887Y207350D01*
X367350Y207350D01*
X358163Y198163D01*
X311906Y227906D02*
X318000Y234000D01*
X264000Y227906D02*
X311906Y227906D01*
X301242Y260469D02*
X418283Y260469D01*
X421000Y181000D02*
X421000Y257752D01*
X418283Y260469D02*
X421000Y257752D01*
X256923Y232000D02*
X283048Y232000D01*
X284516Y230531D01*
X291531Y230531D01*
X295680Y234680D01*
X254828Y229906D02*
X256923Y232000D01*
X262320Y220000D02*
X254828Y227491D01*
X254828Y229906D01*
X280748Y220000D02*
X262320Y220000D01*
X257453Y216402D02*
X260531Y213323D01*
X269824Y246288D02*
X257457Y246288D01*
X242531Y231362D02*
X242531Y225730D01*
X246824Y221437D01*
X257457Y246288D02*
X242531Y231362D01*
X253160Y221437D02*
X257453Y217144D01*
X246824Y221437D02*
X253160Y221437D01*
X257453Y217144D02*
X257453Y216402D01*
X260531Y207824D02*
X260824Y207531D01*
X260531Y213323D02*
X260531Y207824D01*
X260824Y207531D02*
X286254Y207531D01*
X309954Y169046D02*
X313954Y169046D01*
X287547Y206239D02*
X287547Y191453D01*
X286254Y207531D02*
X287547Y206239D01*
X287547Y191453D02*
X309954Y169046D01*
G54D12*
X338772Y246288D03*
X356009Y246288D03*
X373246Y246288D03*
X390483Y246288D03*
X269824Y246288D03*
X287061Y246288D03*
X321535Y246288D03*
X304298Y246288D03*
X334000Y214000D03*
G54D13*
X235000Y244500D03*
X235000Y234500D03*
X235000Y224500D03*
X235000Y214500D03*
X235000Y204500D03*
X235000Y194500D03*
X235000Y184500D03*
X235000Y174500D03*
X235000Y164500D03*
X405000Y244500D03*
X405000Y234500D03*
X405000Y224500D03*
X405000Y214500D03*
X405000Y204500D03*
X405000Y194500D03*
X405000Y184500D03*
X405000Y174500D03*
X405000Y164500D03*
X405000Y254500D03*
X225000Y244500D03*
X225000Y234500D03*
X225000Y164500D03*
X225000Y174500D03*
X225000Y184500D03*
X225000Y194500D03*
X225000Y204500D03*
X225000Y214500D03*
X225000Y224500D03*
X415000Y254500D03*
X415000Y244500D03*
X415000Y234500D03*
X415000Y224500D03*
X415000Y214500D03*
X415000Y204500D03*
X415000Y194500D03*
X415000Y184500D03*
X415000Y174500D03*
X415000Y164500D03*
G54D14*
X225000Y254500D03*
X235000Y254500D03*
G54D15*
X326782Y200000D03*
X327032Y190000D03*
X250000Y211394D03*
X264000Y211000D03*
X250000Y227906D03*
X285953Y234000D03*
X264000Y227906D03*
X318000Y234000D03*
X339000Y256000D03*
X356000Y257000D03*
X372000Y256000D03*
X389000Y256000D03*
X323000Y170000D03*
X397000Y257000D03*
X308000Y235000D03*
X280748Y220000D03*
X295680Y234680D03*
X256606Y162000D03*
X313954Y169046D03*
G54D16*
X388500Y198961D03*
X373500Y198961D03*
X358500Y198961D03*
X343500Y198961D03*
G54D17*
X369961Y232000D03*
X369961Y222000D03*
X369961Y212000D03*
G54D18*
X247142Y199354D03*
X264858Y199354D03*
X247142Y168646D03*
X264858Y168646D03*
X279142Y199354D03*
X296858Y199354D03*
X279142Y168646D03*
X296858Y168646D03*

M02*
