G04 Generated by Ultiboard 13.0 *
%FSLAX25Y25*%
%MOIN*%

%ADD10C,0.00001*%
%ADD11C,0.00800*%
%ADD12C,0.00612*%
%ADD13C,0.00787*%
%ADD14C,0.01969*%
%ADD15C,0.00984*%


G04 ColorRGB FFFF00 for the following layer *
%LNSilkscreen Top*%
%LPD*%
G54D10*
G54D11*
X332522Y240038D02*
X345022Y240038D01*
X345022Y252538D01*
X332522Y252538D01*
X332522Y240038D01*
X349759Y240038D02*
X362259Y240038D01*
X362259Y252538D01*
X349759Y252538D01*
X349759Y240038D01*
X366996Y240038D02*
X379496Y240038D01*
X379496Y252538D01*
X366996Y252538D01*
X366996Y240038D01*
X384233Y240038D02*
X396733Y240038D01*
X396733Y252538D01*
X384233Y252538D01*
X384233Y240038D01*
X240000Y254500D02*
X240000Y164500D01*
X400000Y164500D01*
X400000Y254500D01*
X242926Y250640D02*
G75*
D01*
G02X242926Y250640I3937J0*
G01*
X318031Y254500D02*
X318039Y254328D01*
X318061Y254158D01*
X318099Y253991D01*
X318150Y253827D01*
X318216Y253668D01*
X318295Y253516D01*
X318387Y253371D01*
X318492Y253235D01*
X318608Y253108D01*
X318735Y252992D01*
X318871Y252887D01*
X319016Y252795D01*
X319168Y252716D01*
X319327Y252650D01*
X319491Y252599D01*
X319658Y252561D01*
X319828Y252539D01*
X320000Y252531D01*
X320172Y252539D01*
X320342Y252561D01*
X320509Y252599D01*
X320673Y252650D01*
X320832Y252716D01*
X320984Y252795D01*
X321129Y252887D01*
X321265Y252992D01*
X321392Y253108D01*
X321508Y253235D01*
X321613Y253371D01*
X321705Y253516D01*
X321784Y253668D01*
X321850Y253827D01*
X321901Y253991D01*
X321939Y254158D01*
X321961Y254328D01*
X321969Y254500D01*
X400000Y254500D02*
X321969Y254500D01*
X318031Y254500D02*
X240000Y254500D01*
X263574Y240038D02*
X276074Y240038D01*
X276074Y252538D01*
X263574Y252538D01*
X263574Y240038D01*
X244209Y174209D02*
X267791Y174209D01*
X267791Y197791D01*
X244209Y197791D01*
X244209Y185701D02*
X244235Y185702D01*
X244261Y185705D01*
X244286Y185711D01*
X244311Y185719D01*
X244335Y185729D01*
X244358Y185741D01*
X244380Y185755D01*
X244401Y185771D01*
X244420Y185788D01*
X244438Y185807D01*
X244454Y185828D01*
X244468Y185850D01*
X244480Y185873D01*
X244490Y185898D01*
X244498Y185922D01*
X244504Y185948D01*
X244507Y185974D01*
X244508Y186000D01*
X244507Y186026D01*
X244504Y186052D01*
X244498Y186078D01*
X244490Y186102D01*
X244480Y186127D01*
X244468Y186150D01*
X244454Y186172D01*
X244438Y186193D01*
X244420Y186212D01*
X244401Y186229D01*
X244380Y186245D01*
X244358Y186259D01*
X244335Y186271D01*
X244311Y186281D01*
X244286Y186289D01*
X244261Y186295D01*
X244235Y186298D01*
X244209Y186300D01*
X244209Y197791D02*
X244209Y186300D01*
X244209Y185701D02*
X244209Y174209D01*
X299791Y197791D02*
X276209Y197791D01*
X276209Y174209D01*
X299791Y174209D01*
X299791Y186300D02*
X299765Y186298D01*
X299739Y186295D01*
X299714Y186289D01*
X299689Y186281D01*
X299665Y186271D01*
X299642Y186259D01*
X299620Y186245D01*
X299599Y186229D01*
X299580Y186212D01*
X299562Y186193D01*
X299546Y186172D01*
X299532Y186150D01*
X299520Y186127D01*
X299510Y186102D01*
X299502Y186078D01*
X299496Y186052D01*
X299493Y186026D01*
X299492Y186000D01*
X299493Y185974D01*
X299496Y185948D01*
X299502Y185922D01*
X299510Y185898D01*
X299520Y185873D01*
X299532Y185850D01*
X299546Y185828D01*
X299562Y185807D01*
X299580Y185788D01*
X299599Y185771D01*
X299620Y185755D01*
X299642Y185741D01*
X299665Y185729D01*
X299689Y185719D01*
X299714Y185711D01*
X299739Y185705D01*
X299765Y185702D01*
X299791Y185701D01*
X299791Y174209D02*
X299791Y185701D01*
X299791Y186300D02*
X299791Y197791D01*
X399130Y202110D02*
X332870Y202110D01*
X332870Y165890D01*
X399130Y165890D01*
X384563Y198333D02*
G75*
D01*
G02X384563Y198333I3937J0*
G01*
X399130Y185969D02*
X398958Y185961D01*
X398788Y185939D01*
X398620Y185901D01*
X398457Y185850D01*
X398298Y185784D01*
X398146Y185705D01*
X398001Y185613D01*
X397865Y185508D01*
X397738Y185392D01*
X397622Y185265D01*
X397517Y185129D01*
X397425Y184984D01*
X397346Y184832D01*
X397280Y184673D01*
X397228Y184509D01*
X397191Y184342D01*
X397169Y184172D01*
X397161Y184000D01*
X397169Y183828D01*
X397191Y183658D01*
X397228Y183491D01*
X397280Y183327D01*
X397346Y183168D01*
X397425Y183016D01*
X397517Y182871D01*
X397622Y182735D01*
X397738Y182608D01*
X397865Y182492D01*
X398001Y182387D01*
X398146Y182295D01*
X398298Y182216D01*
X398457Y182150D01*
X398620Y182099D01*
X398788Y182061D01*
X398958Y182039D01*
X399130Y182031D01*
X399130Y165890D02*
X399130Y182031D01*
X399130Y185969D02*
X399130Y202110D01*
X280811Y240038D02*
X293311Y240038D01*
X293311Y252538D01*
X280811Y252538D01*
X280811Y240038D01*
X321405Y222444D02*
X320810Y221333D01*
X320810Y220222D01*
X321405Y219111D01*
X323190Y222444D01*
X323786Y221333D01*
X323786Y220222D01*
X323190Y219111D01*
X323190Y216889D02*
X323786Y215778D01*
X320810Y215778D01*
X320810Y217444D02*
X320810Y214111D01*
X277000Y210500D02*
X277000Y225500D01*
X317000Y225500D02*
X317000Y210500D01*
X277000Y225500D02*
X317000Y225500D01*
X304500Y219500D02*
X289500Y219500D01*
X289500Y216500D02*
X304500Y216500D01*
X289500Y219500D02*
X289500Y216500D01*
X302833Y224667D02*
X302761Y224664D01*
X302689Y224654D01*
X302618Y224638D01*
X302548Y224617D01*
X302481Y224589D01*
X302417Y224555D01*
X302355Y224516D01*
X302298Y224472D01*
X302244Y224423D01*
X302195Y224369D01*
X302151Y224311D01*
X302112Y224250D01*
X302078Y224186D01*
X302050Y224118D01*
X302029Y224049D01*
X302013Y223978D01*
X302003Y223906D01*
X302000Y223833D01*
X302003Y223761D01*
X302013Y223689D01*
X302029Y223618D01*
X302050Y223548D01*
X302078Y223481D01*
X302112Y223417D01*
X302151Y223355D01*
X302195Y223298D01*
X302244Y223244D01*
X302298Y223195D01*
X302355Y223151D01*
X302417Y223112D01*
X302481Y223078D01*
X302548Y223050D01*
X302618Y223029D01*
X302689Y223013D01*
X302761Y223003D01*
X302833Y223000D01*
X304500Y223000D02*
X304573Y223003D01*
X304645Y223013D01*
X304716Y223029D01*
X304785Y223050D01*
X304852Y223078D01*
X304917Y223112D01*
X304978Y223151D01*
X305036Y223195D01*
X305089Y223244D01*
X305138Y223298D01*
X305183Y223355D01*
X305222Y223417D01*
X305255Y223481D01*
X305283Y223548D01*
X305305Y223618D01*
X305321Y223689D01*
X305330Y223761D01*
X305333Y223833D01*
X305330Y223906D01*
X305321Y223978D01*
X305305Y224049D01*
X305283Y224118D01*
X305255Y224186D01*
X305222Y224250D01*
X305183Y224311D01*
X305138Y224369D01*
X305089Y224423D01*
X305036Y224472D01*
X304978Y224516D01*
X304917Y224555D01*
X304852Y224589D01*
X304785Y224617D01*
X304716Y224638D01*
X304645Y224654D01*
X304573Y224664D01*
X304500Y224667D01*
X302833Y224667D01*
X302833Y223000D02*
X304500Y223000D01*
X297500Y219000D02*
X304000Y219000D01*
X297500Y218500D02*
X303500Y218500D01*
X297000Y219500D02*
X297000Y216500D01*
X297500Y217000D02*
X297500Y218000D01*
X297500Y218500D01*
X298000Y217000D02*
X297500Y217000D01*
X304000Y217000D02*
X298000Y217000D01*
X298000Y218000D02*
X303000Y218000D01*
X303500Y217500D02*
X298000Y217500D01*
X298000Y218000D01*
X302000Y220500D02*
X305333Y222167D01*
X302000Y222167D01*
X305333Y220500D02*
X302000Y220500D01*
X304500Y216500D02*
X304500Y219500D01*
X304000Y219000D02*
X304000Y217000D01*
X303500Y218500D02*
X303500Y217500D01*
X317000Y210500D02*
X277000Y210500D01*
X315285Y240038D02*
X327785Y240038D01*
X327785Y252538D01*
X315285Y252538D01*
X315285Y240038D01*
X298048Y240038D02*
X310548Y240038D01*
X310548Y252538D01*
X298048Y252538D01*
X298048Y240038D01*
X361260Y237000D02*
X361260Y207000D01*
X398740Y207000D01*
X398740Y237000D01*
X380000Y237000D02*
X380000Y237000D01*
X380000Y237000D01*
X380000Y237000D01*
X380000Y237000D01*
X380000Y237000D01*
X380000Y237000D01*
X380000Y237000D01*
X380000Y237000D01*
X380000Y237000D01*
X380000Y237000D01*
X380000Y237000D01*
X380000Y237000D01*
X380000Y237000D01*
X380000Y237000D01*
X380000Y237000D01*
X380000Y237000D01*
X380000Y237000D01*
X380000Y237000D01*
X380000Y237000D01*
X380000Y237000D01*
X380000Y237000D01*
X380000Y237000D01*
X380000Y237000D01*
X380000Y237000D01*
X380000Y237000D01*
X380000Y237000D01*
X380000Y237000D01*
X380000Y237000D01*
X380000Y237000D01*
X380000Y237000D01*
X380000Y237000D01*
X380000Y237000D01*
X380000Y237000D01*
X380000Y237000D01*
X380000Y237000D01*
X380000Y237000D01*
X398740Y237000D02*
X380000Y237000D01*
X361260Y237000D01*
X327750Y207750D02*
X340250Y207750D01*
X340250Y220250D01*
X327750Y220250D01*
X327750Y207750D01*
G54D12*
X255315Y218864D02*
X259252Y221216D01*
X259252Y218864D02*
X255315Y221216D01*
X257677Y224744D02*
X257677Y222392D01*
X255315Y224352D01*
X259252Y224352D01*
X259252Y223960D02*
X259252Y224744D01*
X269315Y218864D02*
X273252Y221216D01*
X273252Y218864D02*
X269315Y221216D01*
X269709Y222784D02*
X269315Y223176D01*
X269315Y223960D01*
X270102Y224744D01*
X270890Y224744D01*
X271283Y224352D01*
X271677Y224744D01*
X272465Y224744D01*
X273252Y223960D01*
X273252Y223176D01*
X272858Y222784D01*
X271283Y223176D02*
X271283Y224352D01*
X327614Y176864D02*
X330764Y176864D01*
X331551Y177648D01*
X331551Y178432D01*
X330764Y179216D01*
X327614Y179216D01*
X328402Y180392D02*
X327614Y181176D01*
X327614Y181960D01*
X328402Y182744D01*
X328795Y182744D01*
X331551Y180392D01*
X331551Y182744D01*
X331157Y182744D01*
X320864Y224748D02*
X320864Y228685D01*
X322432Y228685D01*
X323216Y227898D01*
X323216Y227504D01*
X322432Y226717D01*
X320864Y226717D01*
X321256Y226717D02*
X323216Y224748D01*
X324392Y227898D02*
X325176Y228685D01*
X325960Y228685D01*
X326744Y227898D01*
X326744Y227504D01*
X324392Y224748D01*
X326744Y224748D01*
X326744Y225142D01*
X276864Y224748D02*
X276864Y228685D01*
X278432Y228685D01*
X279216Y227898D01*
X279216Y227504D01*
X278432Y226717D01*
X276864Y226717D01*
X277256Y226717D02*
X279216Y224748D01*
X280784Y228291D02*
X281176Y228685D01*
X281960Y228685D01*
X282744Y227898D01*
X282744Y227110D01*
X282352Y226717D01*
X282744Y226323D01*
X282744Y225535D01*
X281960Y224748D01*
X281176Y224748D01*
X280784Y225142D01*
X281176Y226717D02*
X282352Y226717D01*
X298864Y224748D02*
X298864Y228685D01*
X300432Y228685D01*
X301216Y227898D01*
X301216Y227504D01*
X300432Y226717D01*
X298864Y226717D01*
X299256Y226717D02*
X301216Y224748D01*
X304352Y228685D02*
X303176Y228685D01*
X302392Y227898D01*
X302392Y226323D01*
X302392Y225535D01*
X303176Y224748D01*
X303960Y224748D01*
X304744Y225535D01*
X304744Y226323D01*
X303960Y227110D01*
X303176Y227110D01*
X302392Y226323D01*
X316784Y208465D02*
X317568Y209252D01*
X318352Y209252D01*
X319136Y208465D01*
X319136Y206102D01*
X318352Y205315D01*
X317568Y205315D01*
X316784Y206102D01*
X315216Y206102D02*
X314432Y205315D01*
X314432Y209252D01*
X315608Y209252D02*
X313256Y209252D01*
G54D13*
X253150Y219835D02*
X253150Y224165D01*
X246850Y219835D02*
X246850Y224165D01*
X246850Y219835D02*
X246850Y224165D01*
X267150Y219835D02*
X267150Y224165D01*
X260850Y219835D02*
X260850Y224165D01*
X260850Y219835D02*
X260850Y224165D01*
X325646Y173701D02*
X325646Y186299D01*
X306354Y186299D02*
X306354Y173701D01*
X325646Y173701D01*
X325646Y186299D02*
X306354Y186299D01*
X321835Y230850D02*
X326165Y230850D01*
X321835Y237150D02*
X326165Y237150D01*
X321835Y237150D02*
X326165Y237150D01*
X277835Y230850D02*
X282165Y230850D01*
X277835Y237150D02*
X282165Y237150D01*
X277835Y237150D02*
X282165Y237150D01*
X299835Y230850D02*
X304165Y230850D01*
X299835Y237150D02*
X304165Y237150D01*
X299835Y237150D02*
X304165Y237150D01*
X318165Y203150D02*
X313835Y203150D01*
X318165Y196850D02*
X313835Y196850D01*
X318165Y196850D02*
X313835Y196850D01*
G54D14*
X309307Y177638D02*
G75*
D01*
G02X309307Y177638I984J0*
G01*
G54D15*
X304681Y167402D02*
G75*
D01*
G02X304681Y167402I492J0*
G01*

M02*
