G04 Generated by Ultiboard 13.0 *
%FSLAX25Y25*%
%MOIN*%

%ADD10C,0.00001*%
%ADD11C,0.11900*%
%ADD12C,0.08700*%
%ADD13C,0.09700*%
%ADD14C,0.13011*%
%ADD15C,0.05137*%
%ADD16C,0.09074*%
%ADD17R,0.02667X0.02667*%
%ADD18C,0.04533*%
%ADD19C,0.07534*%
%ADD20C,0.07499*%


G04 ColorRGB 9900CC for the following layer *
%LNSolder Mask Bottom*%
%LPD*%
G54D10*
G54D11*
X338772Y246288D03*
X356009Y246288D03*
X373246Y246288D03*
X390483Y246288D03*
X269824Y246288D03*
X287061Y246288D03*
X321535Y246288D03*
X304298Y246288D03*
X334000Y214000D03*
G54D12*
X235000Y244500D03*
X235000Y234500D03*
X235000Y224500D03*
X235000Y214500D03*
X235000Y204500D03*
X235000Y194500D03*
X235000Y184500D03*
X235000Y174500D03*
X235000Y164500D03*
X405000Y244500D03*
X405000Y234500D03*
X405000Y224500D03*
X405000Y214500D03*
X405000Y204500D03*
X405000Y194500D03*
X405000Y184500D03*
X405000Y174500D03*
X405000Y164500D03*
X405000Y254500D03*
X225000Y244500D03*
X225000Y234500D03*
X225000Y164500D03*
X225000Y174500D03*
X225000Y184500D03*
X225000Y194500D03*
X225000Y204500D03*
X225000Y214500D03*
X225000Y224500D03*
X415000Y254500D03*
X415000Y244500D03*
X415000Y234500D03*
X415000Y224500D03*
X415000Y214500D03*
X415000Y204500D03*
X415000Y194500D03*
X415000Y184500D03*
X415000Y174500D03*
X415000Y164500D03*
G54D13*
X225000Y254500D03*
X235000Y254500D03*
G54D14*
X247142Y170646D03*
X264858Y170646D03*
X247142Y201354D03*
X264858Y201354D03*
X296858Y201354D03*
X279142Y201354D03*
X296858Y170646D03*
X279142Y170646D03*
G54D15*
X253787Y208000D03*
X271000Y208000D03*
X285000Y207606D03*
X303000Y207748D03*
X326782Y200000D03*
X327032Y190000D03*
X250000Y211394D03*
X264000Y211000D03*
X250000Y227906D03*
X285953Y234000D03*
X264000Y227906D03*
X318000Y234000D03*
X296000Y234000D03*
X339000Y256000D03*
X356000Y257000D03*
X372000Y256000D03*
X389000Y256000D03*
X308000Y235000D03*
X313000Y169000D03*
X323000Y170000D03*
X397000Y257000D03*
G54D16*
X388500Y198961D03*
X373500Y198961D03*
X358500Y198961D03*
X343500Y198961D03*
G54D17*
X282000Y218000D03*
G54D18*
X280667Y216667D02*
X283333Y216667D01*
X283333Y219333D01*
X280667Y219333D01*
X280667Y216667D01*D02*
G54D19*
X312000Y218000D03*
G54D20*
X369961Y232000D03*
X369961Y222000D03*
X369961Y212000D03*

M02*
