M48
INCH,TZ
VER,1
FMAT,2
DETECT,ON
ATC,ON
T1C0.06300
T2C0.04000
T3C0.04000
T4C0.02362
T5C0.03937
%
T1
X3.38772Y2.46288
X3.56009
X3.73246
X3.90483
X2.69824
X2.87061
X3.21535
X3.04298
X3.34000Y2.14000
T2
X2.35000Y2.44500
Y2.34500
Y2.24500
Y2.14500
Y2.04500
Y1.94500
Y1.84500
Y1.74500
Y1.64500
X4.05000Y2.44500
Y2.34500
Y2.24500
Y2.14500
Y2.04500
Y1.94500
Y1.84500
Y1.74500
Y1.64500
Y2.54500
X2.25000Y2.44500
Y2.34500
Y1.64500
Y1.74500
Y1.84500
Y1.94500
Y2.04500
Y2.14500
Y2.24500
X4.15000Y2.54500
Y2.44500
Y2.34500
Y2.24500
Y2.14500
Y2.04500
Y1.94500
Y1.84500
Y1.74500
Y1.64500
X2.25000Y2.54500
T3
X2.35000Y2.54500
T4
X3.26782Y2.00000
X3.27032Y1.90000
X2.50000Y2.11394
X2.64000Y2.11000
X2.50000Y2.27906
X2.85953Y2.34000
X2.64000Y2.27906
X3.18000Y2.34000
X3.39000Y2.56000
X3.56000Y2.57000
X3.72000Y2.56000
X3.89000
X3.69961Y2.32000
Y2.22000
Y2.12000
X3.23000Y1.70000
X3.97000Y2.57000
X3.08000Y2.35000
X2.80748Y2.20000
X2.95680Y2.34680
X2.56606Y1.62000
X3.13954Y1.69046
T5
X3.88500Y1.98961
X3.73500
X3.58500
X3.43500
X2.47142Y1.99354
X2.64858
X2.47142Y1.68646
X2.64858
X2.79142Y1.99354
X2.96858
X2.79142Y1.68646
X2.96858
M30
