G04 Generated by Ultiboard 13.0 *
%FSLAX25Y25*%
%MOIN*%

%ADD10C,0.00001*%
%ADD11C,0.01000*%
%ADD12C,0.02000*%
%ADD13C,0.10700*%
%ADD14C,0.07500*%
%ADD15R,0.08500X0.08500*%
%ADD16R,0.07087X0.04528*%
%ADD17R,0.02362X0.06102*%
%ADD18C,0.03937*%
%ADD19R,0.04528X0.07087*%
%ADD20C,0.07874*%
%ADD21C,0.06299*%
%ADD22R,0.04724X0.02756*%
%ADD23C,0.11811*%


G04 ColorRGB 00FF00 for the following layer *
%LNCopper Top*%
%LPD*%
G54D10*
G54D11*
X338772Y246288D02*
X339000Y246060D01*
X373246Y246288D02*
X373000Y246042D01*
X390483Y246288D02*
X390000Y245805D01*
X323000Y191130D02*
X324130Y190000D01*
X327032Y190000D01*
X250000Y211394D02*
X250000Y216094D01*
X264000Y211000D02*
X264000Y216094D01*
X225000Y194500D02*
X225500Y195000D01*
X234750Y195000D01*
X415000Y184500D02*
X414500Y185000D01*
X405250Y185000D01*
X369200Y189250D02*
X366926Y191524D01*
X405250Y185000D02*
X401000Y189250D01*
X369200Y189250D01*
X366926Y191524D02*
X356248Y191524D01*
X353063Y194709D01*
X353063Y209049D01*
X353667Y209653D01*
X353667Y214347D01*
X350347Y217667D01*
X346333Y217667D01*
X330000Y234000D01*
X415000Y174500D02*
X414500Y175000D01*
X328207Y169750D02*
X326181Y167724D01*
X340149Y173921D02*
X335977Y169750D01*
X405250Y175000D02*
X404171Y173921D01*
X340149Y173921D01*
X335977Y169750D02*
X328207Y169750D01*
X326181Y167724D02*
X326181Y165698D01*
X325302Y164819D01*
X281021Y241021D02*
X274033Y234033D01*
X280211Y243450D02*
X281021Y242641D01*
X280211Y251850D02*
X280211Y243450D01*
X220129Y260250D02*
X271811Y260250D01*
X219250Y259371D02*
X220129Y260250D01*
X219250Y249629D02*
X219250Y259371D01*
X219750Y249129D02*
X219250Y249629D01*
X219750Y202325D02*
X219750Y249129D01*
X222825Y199250D02*
X219750Y202325D01*
X227175Y199250D02*
X222825Y199250D01*
X228006Y200081D02*
X227175Y199250D01*
X234750Y195000D02*
X229669Y200081D01*
X228006Y200081D01*
X271811Y260250D02*
X280211Y251850D01*
X281021Y242641D02*
X281021Y241021D01*
X326782Y200000D02*
X321906Y200000D01*
X338772Y246288D02*
X339000Y246516D01*
X339000Y256000D01*
X356000Y246297D02*
X356000Y257000D01*
X373246Y246288D02*
X372000Y247534D01*
X372000Y256000D01*
X390483Y246288D02*
X389000Y247771D01*
X389000Y256000D01*
X343500Y198961D02*
X331071Y186531D01*
X325755Y186531D01*
X325302Y186079D01*
X316698Y186079D01*
X315819Y186957D01*
X315819Y189181D01*
X314000Y191000D01*
X304298Y246288D02*
X312000Y238586D01*
X312000Y219000D01*
X314331Y216669D01*
X314331Y192331D01*
X313046Y191046D01*
X321858Y206462D02*
X320439Y205043D01*
X321535Y246288D02*
X321535Y238488D01*
X321858Y238165D01*
X321858Y206462D01*
X320439Y205043D02*
X319020Y205043D01*
X318142Y204165D01*
X318142Y191858D01*
X318954Y191046D01*
X414500Y175000D02*
X405250Y175000D01*
X403000Y257000D02*
X397000Y257000D01*
X415000Y254500D02*
X414500Y255000D01*
X405000Y255000D02*
X403000Y257000D01*
X414500Y255000D02*
X405000Y255000D01*
X308819Y169181D02*
X308046Y169954D01*
X309112Y164819D02*
X308819Y165112D01*
X308819Y169181D01*
X325302Y164819D02*
X309112Y164819D01*
X299252Y220000D02*
X300252Y219000D01*
X312646Y219000D01*
X225000Y204500D02*
X225500Y205000D01*
X234000Y205000D01*
X309849Y186079D02*
X313000Y182928D01*
X234000Y205000D02*
X235760Y206760D01*
X300705Y206760D01*
X305500Y201964D01*
X305500Y190029D01*
X305819Y189711D01*
X305819Y186957D01*
X306698Y186079D01*
X309849Y186079D01*
X313000Y182928D02*
X313000Y170000D01*
X264858Y168646D02*
X258213Y162000D01*
X279142Y168646D02*
X272496Y162000D01*
X256606Y162000D02*
X272496Y162000D01*
X225000Y184500D02*
X225500Y185000D01*
X280000Y185000D01*
X296822Y168178D01*
X225000Y174500D02*
X225500Y175000D01*
X234750Y175000D01*
X241750Y168000D01*
X246748Y168000D01*
G54D12*
X225000Y254500D02*
X225500Y255000D01*
X234750Y255000D01*
X268560Y232169D02*
X269831Y230899D01*
X258093Y231657D02*
X259116Y231657D01*
X234750Y255000D02*
X258093Y231657D01*
X259116Y231657D02*
X259628Y232169D01*
X268560Y232169D01*
X269831Y230899D02*
X269831Y229628D01*
X271002Y228457D01*
X282543Y228457D01*
X310680Y200320D01*
X308000Y197640D01*
X308000Y191065D01*
G54D13*
X338772Y246288D03*
X356009Y246288D03*
X373246Y246288D03*
X390483Y246288D03*
X269824Y246288D03*
X287061Y246288D03*
X321535Y246288D03*
X304298Y246288D03*
X334000Y214000D03*
G54D14*
X235000Y244500D03*
X235000Y234500D03*
X235000Y224500D03*
X235000Y214500D03*
X235000Y204500D03*
X235000Y194500D03*
X235000Y184500D03*
X235000Y174500D03*
X235000Y164500D03*
X405000Y244500D03*
X405000Y234500D03*
X405000Y224500D03*
X405000Y214500D03*
X405000Y204500D03*
X405000Y194500D03*
X405000Y184500D03*
X405000Y174500D03*
X405000Y164500D03*
X405000Y254500D03*
X225000Y244500D03*
X225000Y234500D03*
X225000Y164500D03*
X225000Y174500D03*
X225000Y184500D03*
X225000Y194500D03*
X225000Y204500D03*
X225000Y214500D03*
X225000Y224500D03*
X415000Y254500D03*
X415000Y244500D03*
X415000Y234500D03*
X415000Y224500D03*
X415000Y214500D03*
X415000Y204500D03*
X415000Y194500D03*
X415000Y184500D03*
X415000Y174500D03*
X415000Y164500D03*
G54D15*
X225000Y254500D03*
X235000Y254500D03*
G54D16*
X250000Y216094D03*
X250000Y227906D03*
X264000Y216094D03*
X264000Y227906D03*
G54D17*
X318500Y169370D03*
X323500Y169370D03*
X308500Y169370D03*
X313500Y169370D03*
X323500Y190630D03*
X318500Y190630D03*
X313500Y190630D03*
X308500Y190630D03*
G54D18*
X326782Y200000D03*
X327032Y190000D03*
X250000Y211394D03*
X264000Y211000D03*
X250000Y227906D03*
X285953Y234000D03*
X264000Y227906D03*
X318000Y234000D03*
X339000Y256000D03*
X356000Y257000D03*
X372000Y256000D03*
X389000Y256000D03*
X323000Y170000D03*
X397000Y257000D03*
X308000Y235000D03*
X280748Y220000D03*
X295680Y234680D03*
X256606Y162000D03*
X313954Y169046D03*
G54D19*
X318094Y234000D03*
X329906Y234000D03*
X274094Y234000D03*
X285906Y234000D03*
X321906Y200000D03*
X310094Y200000D03*
X296094Y234000D03*
X307906Y234000D03*
G54D20*
X388500Y198961D03*
X373500Y198961D03*
X358500Y198961D03*
X343500Y198961D03*
G54D21*
X369961Y232000D03*
X369961Y222000D03*
X369961Y212000D03*
G54D22*
X280748Y220000D03*
X299252Y220000D03*
G54D23*
X247142Y199354D03*
X264858Y199354D03*
X247142Y168646D03*
X264858Y168646D03*
X279142Y199354D03*
X296858Y199354D03*
X279142Y168646D03*
X296858Y168646D03*

M02*
